<svg width="25" height="24" viewBox="0 0 25 24" fill="none" xmlns="http://www.w3.org/2000/svg">
<g clip-path="url(#clip0_1381_1406)">
<path d="M22.3376 10.1226H22.9043C22.9413 10.1226 22.972 10.0943 22.972 10.0597V9.06289C22.972 9.0283 22.9413 9 22.9043 9H22.1082C21.1883 9 20.6998 9.27461 20.4207 9.85843L18.6898 13.8162C18.5841 14.052 18.4339 14.1642 18.1347 14.1642V9.06289C18.1347 9.0283 18.1051 9 18.0681 9H16.7961C16.7591 9 16.7295 9.0283 16.7295 9.06289V15.1757C16.7295 15.2365 16.7824 15.2857 16.8479 15.2857H18.2743C19.1952 15.2857 19.615 15.0111 19.8941 14.4273L21.6028 10.5198C21.7402 10.2431 21.9369 10.1215 22.3387 10.1215L22.3376 10.1226Z" fill="#D7000F"/>
<path d="M6.78836 12.1434C7.29906 11.9453 7.72199 11.5009 7.72199 10.764C7.72199 9.66557 6.71224 9 5.49524 9H1.7343C1.69729 9 1.66663 9.0283 1.66663 9.06289V10.0607C1.66663 10.0953 1.69729 10.1236 1.7343 10.1236H5.23408C5.7987 10.1236 6.18145 10.4454 6.18145 10.8416C6.18145 11.2378 5.79975 11.5606 5.23408 11.5606H3.15536V10.8196C3.15536 10.785 3.12469 10.7567 3.08769 10.7567H1.7343C1.69729 10.7567 1.66663 10.785 1.66663 10.8196V15.2249C1.66663 15.2595 1.69729 15.2868 1.7343 15.2868H5.44132C6.82643 15.2868 7.81927 14.6841 7.81927 13.4546C7.81927 12.8509 7.43757 12.3509 6.78942 12.1434H6.78836ZM5.30598 14.1915H3.15536V12.7178H5.30704C5.88646 12.7178 6.27873 13.0479 6.27873 13.4546C6.27873 13.8613 5.88646 14.1915 5.30704 14.1915H5.30598Z" fill="#D7000F"/>
<path d="M23.655 15.2143L21.4737 12.6118C21.4674 12.6034 21.4579 12.6055 21.4547 12.6139L20.8679 13.9534C20.8647 13.9618 20.8647 13.9712 20.87 13.9786L21.8237 15.1703C21.8914 15.2542 21.9675 15.2856 22.0817 15.2856H23.6191C23.6635 15.2856 23.6825 15.2458 23.6561 15.2133L23.655 15.2143Z" fill="#D7000F"/>
<path d="M10.2068 10.7556H8.9327C8.89569 10.7556 8.86609 10.7839 8.86609 10.8185V15.2238C8.86609 15.2584 8.89569 15.2857 8.9327 15.2857H10.2068C10.2438 15.2857 10.2745 15.2574 10.2745 15.2238V10.8185C10.2745 10.7839 10.2438 10.7556 10.2068 10.7556Z" fill="#D7000F"/>
<path d="M15.4469 9H14.1738C14.1368 9 14.1072 9.0283 14.1072 9.06289V14.1642C13.8091 14.1642 13.6579 14.0521 13.5521 13.8162L11.8213 9.85843C11.5421 9.27461 11.0536 9 10.1338 9H8.93368C8.89667 9 8.86707 9.0283 8.86707 9.06289V10.0607C8.86707 10.0953 8.89667 10.1236 8.93368 10.1236H9.90326C10.305 10.1236 10.5017 10.2452 10.6392 10.5219L12.3478 14.4294C12.6259 15.0132 13.0467 15.2878 13.9677 15.2878H15.394C15.4596 15.2878 15.5124 15.2385 15.5124 15.1778V9.06289C15.5124 9.0283 15.4828 9 15.4458 9H15.4469Z" fill="#D7000F"/>
</g>
<defs>
<clipPath id="clip0_1381_1406">
<rect width="22" height="6.28571" fill="white" transform="translate(1.66663 9)"/>
</clipPath>
</defs>
</svg>
