<svg width="25" height="24" viewBox="0 0 25 24" fill="none" xmlns="http://www.w3.org/2000/svg">
<g clip-path="url(#clip0_1381_1518)">
<path d="M8.37605 16.3552L8.33386 16.3944C8.06475 16.6951 7.73739 16.938 7.37161 17.1085C7.00583 17.2789 6.60925 17.3733 6.2059 17.386C4.6265 17.386 3.47812 16.1984 3.47812 14.5618C3.47812 12.9251 4.6265 11.7406 6.2059 11.7406C6.60925 11.7532 7.00583 11.8476 7.37161 12.0181C7.73739 12.1885 8.06475 12.4315 8.33386 12.7322L8.37605 12.7744L9.39182 11.5416L9.36468 11.5115C8.99628 11.041 8.52411 10.6621 7.98504 10.4044C7.44597 10.1466 6.8546 10.0169 6.25713 10.0255C5.07265 9.99966 3.92201 10.4216 3.03505 11.2071C2.15818 12.1042 1.66724 13.3088 1.66724 14.5633C1.66724 15.8177 2.15818 17.0224 3.03505 17.9195C3.92123 18.7063 5.0724 19.1284 6.25713 19.101C6.85428 19.1095 7.44533 18.9801 7.98431 18.7229C8.52329 18.4657 8.99566 18.0876 9.36468 17.6181L9.39182 17.5849L8.37605 16.3552Z" fill="#004785"/>
<path d="M12.216 10.1584H10.4196V18.9265H12.216V10.1584Z" fill="#004785"/>
<path d="M19.2509 17.0154C18.8579 17.2815 18.3989 17.4338 17.9247 17.4554C17.343 17.4554 17.0838 17.154 17.0838 16.4668V11.816H18.9134V10.1643H17.0838V7.43652L15.3205 8.37694V10.1643H13.8135V11.816H15.3205V16.7652C15.3205 18.1125 16.1193 19.0318 17.3129 19.0559C17.8725 19.0851 18.428 18.9454 18.9073 18.6551H18.9254L19.3715 16.9581L19.2509 17.0154Z" fill="#004785"/>
<path d="M22.5333 10.1584H20.7369V18.9265H22.5333V10.1584Z" fill="#004785"/>
<path d="M23.5913 8.61838C22.7873 7.47229 21.719 6.53671 20.4769 5.89082C19.2348 5.24492 17.8554 4.90771 16.4554 4.90771C15.0554 4.90771 13.676 5.24492 12.4339 5.89082C11.1918 6.53671 10.1235 7.47229 9.3195 8.61838L9.23511 8.73592H11.2998L11.3239 8.71182C11.9825 8.01139 12.7776 7.4532 13.6601 7.07166C14.5427 6.69012 15.4939 6.49329 16.4554 6.49329C17.4169 6.49329 18.3682 6.69012 19.2507 7.07166C20.1332 7.4532 20.9283 8.01139 21.5869 8.71182L21.611 8.73592H23.6757L23.5913 8.61838Z" fill="#ED1C2E"/>
</g>
<defs>
<clipPath id="clip0_1381_1518">
<rect width="22" height="14.1844" fill="white" transform="translate(1.66663 4.90771)"/>
</clipPath>
</defs>
</svg>
