<svg width="24" height="24" viewBox="0 0 24 24" fill="none" xmlns="http://www.w3.org/2000/svg">
<g clip-path="url(#clip0_1381_1414)">
<path d="M11.9986 4C5.37077 4 1 7.35805 1 11.5C1 15.642 5.37077 19 11.9986 19C18.6264 19 23 15.642 23 11.5C23 7.35805 18.6292 4 11.9986 4Z" fill="white"/>
<path d="M13.9577 14.3047C15.8466 13.9874 22.2242 12.7233 21.4372 9.21068C21.1561 7.95209 19.8126 6.56601 17.786 5.60308C16.167 4.90055 14.191 4.49097 11.9705 4.49097C5.81769 4.48826 1.53687 7.6293 1.53687 11.5C1.53687 14.1962 3.61403 16.5371 6.95606 17.7116C7.66437 15.9105 10.4864 14.8852 13.9577 14.3047Z" fill="#007DC5"/>
<path d="M12.0127 15.5443C9.25247 15.878 7.9848 16.7378 7.17249 17.7821C8.57788 18.246 10.1969 18.5091 11.9733 18.5091C18.1289 18.5091 22.4097 15.3707 22.4097 11.5C22.4097 11.1556 22.376 10.8192 22.3114 10.4883C22.1062 15.0344 15.0342 15.1809 12.0155 15.5443H12.0127Z" fill="url(#paint0_linear_1381_1414)"/>
<path d="M6.03406 7.83816H3.97095L3.99343 7.89512C4.08619 8.10941 4.08057 8.50272 4.07495 8.8472C4.07495 8.92858 4.07214 13.4449 4.07214 13.4449H4.1143C4.1143 13.4449 5.0531 13.4774 5.93568 13.4774C7.77956 13.4774 9.01911 12.2703 9.01911 10.4774C9.01911 8.87162 7.84983 7.83545 6.03687 7.83545L6.03406 7.83816ZM4.95472 8.33997C5.07277 8.33183 5.43818 8.30471 5.69958 8.30471C7.27643 8.30471 8.01004 9.0425 8.01004 10.6266C8.01004 12.2107 7.35794 13.0597 6.01439 13.0597C5.03061 13.0597 4.95191 13.0136 4.95191 12.4521V8.34268L4.95472 8.33997Z" fill="white"/>
<path d="M14.5591 13.4123C14.5282 13.0814 14.5142 12.859 14.5142 12.6664V10.7025H13.5332L13.5641 10.7622C13.5641 10.7622 13.6625 10.9521 13.6625 11.3644C13.6625 11.3779 13.6653 12.7288 13.626 13.0488C13.3899 13.1085 13.0722 13.1275 12.8671 13.1275C11.3099 13.1275 10.5201 12.2649 10.5201 10.5669C10.5201 9.27035 11.4083 8.30199 12.6815 8.21248C13.3505 8.16637 13.9942 8.34268 14.4017 8.68174L14.472 8.74141V7.94666L14.4383 7.94123C14.0335 7.86528 13.5613 7.78662 13.0947 7.78662C10.8545 7.78662 9.5166 8.92315 9.5166 10.83C9.5166 12.859 11.1497 13.5832 12.6787 13.5832C13.328 13.5832 13.997 13.5371 14.517 13.453L14.5563 13.4476V13.4096L14.5591 13.4123Z" fill="white"/>
<path d="M18.0586 10.3689C18.6179 10.2251 19.1576 9.74772 19.1576 9.05061C19.1576 8.29112 18.4464 7.83813 17.2575 7.83813H15.4923L15.5036 7.88967C15.5036 7.88967 15.557 8.11481 15.557 8.63289V13.4964H15.6019C15.6019 13.4964 16.2962 13.4828 17.1479 13.4828C18.632 13.4828 19.4836 12.8616 19.4836 11.7767C19.4836 11.1067 18.9074 10.5452 18.0642 10.3689H18.0586ZM16.4367 10.6428H16.8921C17.9461 10.6428 18.4774 11.0416 18.4774 11.8282C18.4774 12.6582 18.0192 13.0597 17.0748 13.0597C16.6166 13.0597 16.4395 12.8996 16.4395 12.49V10.6428H16.4367ZM16.4395 8.28027H17.0158C17.9236 8.28027 18.3115 8.54609 18.3115 9.16725C18.3115 9.87521 17.8365 10.2034 16.8134 10.2034H16.4367V8.28027H16.4395Z" fill="white"/>
</g>
<defs>
<linearGradient id="paint0_linear_1381_1414" x1="6.91108" y1="14.5" x2="22.525" y2="14.5" gradientUnits="userSpaceOnUse">
<stop offset="0.1" stop-color="#007DC5"/>
<stop offset="0.23" stop-color="#0083CA"/>
<stop offset="0.4" stop-color="#0095DA"/>
<stop offset="0.75" stop-color="#00B49D"/>
<stop offset="1" stop-color="#71BF44"/>
</linearGradient>
<clipPath id="clip0_1381_1414">
<rect width="22" height="15" fill="white" transform="translate(1 4)"/>
</clipPath>
</defs>
</svg>
