<svg width="24" height="24" viewBox="0 0 24 24" fill="none" xmlns="http://www.w3.org/2000/svg">
<g clip-path="url(#clip0_1381_1370)">
<path d="M15.3996 13.8499C15.3492 13.5475 15.2685 13.2501 15.1425 12.9779C14.7595 12.1463 14.2202 11.4406 13.4138 10.9719C12.1588 10.241 10.6417 10.2461 9.40186 10.9971C8.83737 11.3348 8.37872 11.8237 8.08136 12.4084C7.98055 12.6049 7.89991 12.8166 7.82935 13.0283C7.50174 14.0666 7.51686 15.4628 8.10656 16.4104C8.29808 16.7229 8.57528 16.985 8.91801 17.116C9.2557 17.2471 9.66394 17.2319 9.96635 17.0354C10.3595 16.7783 10.43 16.2944 10.3595 15.861C10.2688 15.3065 10.1932 14.7672 10.3998 14.2229C10.4653 14.0515 10.556 13.8801 10.6871 13.7592C10.7677 13.6785 10.8635 13.618 10.9643 13.5676C11.176 13.4618 11.4229 13.4164 11.6548 13.4567C12.063 13.5223 12.4007 13.8398 12.5822 14.2178C12.7636 14.5908 12.814 15.0142 12.8342 15.4325C12.9198 17.2471 12.4914 19.117 12.0277 20.861C11.9824 21.0424 11.932 21.2188 11.8816 21.3953C11.8413 21.5313 11.7757 21.7078 11.8614 21.8438C11.9017 21.8993 11.9572 21.9396 12.0227 21.9698C12.2898 22.0757 12.5116 21.9144 12.688 21.733C13.7515 20.6644 14.4319 19.2884 14.8956 17.867C15.0669 17.3378 15.2181 16.8035 15.3189 16.2541C15.455 15.5031 15.5357 14.6463 15.3996 13.8549" fill="#009590"/>
<path d="M22.9999 5.48277C22.9999 5.21059 22.758 5.02914 22.501 5.03922C22.2389 5.0493 21.997 5.18539 21.755 5.27611C17.0879 7.05031 11.816 7.38801 6.89685 6.67732C6.05516 6.55635 5.20338 6.38498 4.35665 6.25394C3.82744 6.16825 3.30327 6.05232 2.76902 6.00696C2.31541 5.97672 1.74588 5.95656 1.37795 6.2741C0.889063 6.69244 0.924344 7.48881 1.20155 8.01301C1.5342 8.63801 2.11381 9.11684 2.71358 9.46966C3.29823 9.81744 3.9988 10.1904 4.69433 10.1451C6.57429 10.0241 8.4492 9.84769 10.3191 9.60071C13.5095 9.1874 16.851 8.7993 19.8448 7.55938C20.8226 7.15615 21.7903 6.65212 22.627 5.99688C22.7782 5.88095 22.9999 5.69446 22.9999 5.47269" fill="#009590"/>
<path d="M9.60847 3.88517C9.60847 4.90331 10.43 5.72488 11.4431 5.72488C12.4561 5.72488 13.2777 4.90331 13.2777 3.88517C13.2777 3.73396 13.2424 3.58275 13.1769 3.44666C13.0206 3.114 12.8442 2.95271 12.8593 2.54948C12.8845 2.01017 12.189 2.00513 11.816 2.00513C11.4078 2.00513 10.9794 2.06057 10.6114 2.24706C10.3191 2.39323 10.0671 2.62005 9.89071 2.89726C9.70927 3.17952 9.60847 3.51218 9.59839 3.84989V3.89021" fill="#ED1551"/>
</g>
<defs>
<clipPath id="clip0_1381_1370">
<rect width="22" height="20" fill="white" transform="translate(1 2)"/>
</clipPath>
</defs>
</svg>
