<svg width="25" height="24" viewBox="0 0 25 24" fill="none" xmlns="http://www.w3.org/2000/svg">
<g clip-path="url(#clip0_1381_1363)">
<path d="M6.77768 2.25029C6.21066 2.52902 5.78746 3.00974 5.59024 3.59952L1.78961 14.8175C1.58828 15.4072 1.63348 16.0414 1.92109 16.603C2.2046 17.1564 2.69354 17.5725 3.29343 17.7704L15.7472 21.8827C16.3511 22.0806 16.9962 22.0362 17.5632 21.7534C18.1302 21.4707 18.5535 20.994 18.7507 20.4042L22.5513 9.18627C22.9663 7.96631 22.2924 6.63729 21.0475 6.23333L8.58965 2.12103C7.98566 1.92309 7.34469 1.96752 6.77357 2.25029" fill="white"/>
<path d="M12.8631 13.024C12.1851 13.7672 11.3428 14.3651 10.3649 14.7367L9.80203 14.9508V9.75189L10.3567 9.96195C11.3346 10.3296 12.181 10.9274 12.859 11.6667C13.3438 10.8991 13.6437 10.0145 13.7054 9.04901C13.8574 6.55658 12.2714 4.27017 10.0896 3.47437L8.28999 2.88459C7.47645 2.61798 6.61361 3.0583 6.34654 3.85409L2.5418 15.0801C2.27062 15.8799 2.7267 16.7444 3.54024 17.007L12.181 19.8428C13.0603 18.9218 13.6355 17.7018 13.7177 16.3405C13.7958 15.1245 13.4712 13.9813 12.8631 13.0199M7.86679 15.2659H7.00805V9.43681H7.86679V15.2659Z" fill="#0099DA"/>
<path d="M12.3659 12.3454C11.8852 11.7879 11.3018 11.3233 10.6279 10.98V13.7188C11.3018 13.3755 11.8893 12.9028 12.3659 12.3454Z" fill="#F15C21"/>
<path d="M20.7683 6.98078L12.8384 4.37524C13.9026 5.52249 14.5559 7.04541 14.56 8.71376C14.56 10.0307 14.145 11.2951 13.4177 12.3494C14.1491 13.4037 14.5682 14.6641 14.5723 15.981C14.5723 17.5564 13.9971 19.0066 13.0397 20.1296L16.0186 21.1072C16.8321 21.3738 17.695 20.9335 17.962 20.1337L21.7709 8.90766C22.0421 8.10782 21.586 7.24335 20.7724 6.98078M18.6729 15.2539H17.6005L15.3982 12.3413L17.6374 9.42877H18.7181L16.4747 12.3454L18.6729 15.2539Z" fill="#0055A2"/>
</g>
<defs>
<clipPath id="clip0_1381_1363">
<rect width="21" height="20" fill="white" transform="translate(1.66663 2)"/>
</clipPath>
</defs>
</svg>
