<svg width="24" height="24" viewBox="0 0 24 24" fill="none" xmlns="http://www.w3.org/2000/svg">
<g clip-path="url(#clip0_1381_1275)">
<path d="M21.2809 23H2.71911C1.76967 23 1 22.2303 1 21.2809V2.71911C1 1.76967 1.76967 1 2.71911 1H21.2809C22.2303 1 23 1.76967 23 2.71911V21.2809C23 22.2303 22.2303 23 21.2809 23Z" fill="#FFE300"/>
<path d="M15.685 11.9993C16.6676 12.6474 17.3164 13.7596 17.3164 15.0246C17.3164 17.0239 15.6951 18.6453 13.6958 18.6453H7.62728C7.51164 18.6453 7.41772 18.5514 7.41772 18.4357V5.56448C7.41772 5.44806 7.51164 5.35415 7.62728 5.35415H13.6958C15.6951 5.35415 17.3164 6.97469 17.3164 8.97476C17.3164 10.2398 16.6676 11.3528 15.685 12.0001V11.9993ZM12.7062 8.97399H11.5661V15.0239H12.7062V8.97399Z" fill="#1E1E1E"/>
</g>
<defs>
<clipPath id="clip0_1381_1275">
<rect width="22" height="22" fill="white" transform="matrix(1 0 0 -1 1 23)"/>
</clipPath>
</defs>
</svg>
