<svg width="25" height="24" viewBox="0 0 25 24" fill="none" xmlns="http://www.w3.org/2000/svg">
<g clip-path="url(#clip0_1381_1280)">
<path d="M22.9789 12.2098L22.7875 12.0857C22.1383 11.4256 21.2356 11.1377 20.0278 11.2117C19.0217 11.275 18.225 11.6817 17.6147 12.0593C17.6147 12.0488 17.6147 12.0408 17.6147 12.0303C17.6147 11.7081 17.6509 11.3595 17.6845 11.0215C17.7181 10.6782 17.7569 10.327 17.7569 9.99693C17.7569 9.66685 17.7207 9.33676 17.6043 9.06213C17.5759 8.99083 17.5112 8.95122 17.431 8.95122C17.1051 8.95914 16.4715 9.18624 16.3163 9.32355L16.2335 9.51104C16.2283 9.8781 16.1482 10.9053 16.068 11.0294C16.0706 11.0242 16.0266 11.1536 16.0266 11.1536C15.8895 12.6191 15.8869 13.9052 16.0137 15.0116C16.0292 15.1225 16.2361 15.2889 16.399 15.3496C16.5749 15.4156 17.1284 15.2651 17.4465 15.1437C17.4414 15.1437 17.5655 15.1252 17.5655 15.1252C17.6664 15.1146 17.7259 15.0275 17.7207 14.9113L17.7285 14.5944C17.9586 13.6411 18.8898 12.5003 19.989 12.3287C20.6123 12.2283 21.1037 12.392 21.4917 12.8225C21.5434 12.8991 21.6572 13.5883 21.2486 14.3752C20.9434 14.9588 20.333 15.4526 19.5286 15.7589C18.7682 16.0547 17.9302 16.1735 16.8982 16.1366C16.8543 16.1075 15.9309 15.4685 15.9309 15.4685C15.111 14.8796 14.092 14.1481 13.1686 13.7916C13.0057 13.7282 12.716 13.48 12.5401 13.3348L12.4444 13.2556C11.9116 12.8198 10.8977 12.1306 10.0856 11.5761C10.0856 11.5761 9.71835 11.3252 9.64851 11.275C9.64851 11.2433 9.64851 11.18 9.64851 11.18C9.67179 11.1536 10.1839 10.842 10.1839 10.842C10.9003 10.4142 11.2314 10.2055 11.3012 10.0973C11.2857 10.1158 11.3969 10.0392 11.3969 10.0392C11.4047 10.0365 13.1712 9.01459 13.1712 9.01459C14.8756 8.05866 16.8051 6.97333 17.819 5.90385L17.8681 5.74013L17.8914 5.59489C17.9586 5.36515 17.9612 5.19086 17.9069 4.98753C17.8914 4.92943 17.8397 4.86077 17.7698 4.85021C16.9784 4.76835 15.9568 5.25424 15.0282 6.14415C14.8187 6.34485 14.6429 6.44255 14.4566 6.54554L14.3144 6.6274C13.2902 7.22156 10.9831 8.68451 9.77266 9.47407C9.85284 8.14844 10.0934 6.26034 10.3882 4.68913L10.3546 4.50164L10.2305 4.26397L10.1373 4.09497L10.1115 4.08705C9.87094 3.96293 9.67438 4.01311 9.52954 4.05008L9.289 4.13986L8.9657 4.25869C8.90104 4.2719 8.85707 4.31151 8.83379 4.37488C8.25702 5.79822 7.77595 8.14052 7.66215 10.0128C6.50861 9.26546 5.44301 8.72676 4.92056 8.46533L4.90504 8.45741L4.84296 8.4442C4.65416 8.42044 4.42655 8.27784 4.20671 8.14052C4.18343 8.12732 3.76702 7.85004 3.76702 7.85004L3.09714 7.41169L2.92126 7.36944C2.63417 7.41961 2.08068 7.79987 1.91773 8.05866C1.89704 8.09299 1.8867 8.12996 1.8867 8.16693C1.8867 8.22238 1.90222 8.2752 1.91773 8.33065L1.94619 8.47061L1.97722 8.55511C2.29794 8.89048 3.11007 9.45031 3.9041 9.88602L4.82486 10.3851L6.23445 11.172L6.47499 11.3675L6.64052 11.4652C6.64052 11.4652 6.65862 11.4757 6.67156 11.4836C6.29653 11.7398 4.10584 13.2318 4.10584 13.2318L2.75832 14.1455C2.63158 14.2353 2.09878 14.4782 1.97981 14.5257C1.68754 14.6472 1.46511 14.8347 1.37459 15.0354L1.33838 15.1146L1.37459 15.1674L1.47805 15.2466L1.61512 15.3391L1.76514 15.4421L1.9048 15.4658C2.14275 15.4737 2.49192 15.3364 3.14887 15.0433C3.7515 14.7713 5.3887 13.7626 6.08961 13.3321L6.38705 13.1499C6.5112 13.1605 6.64569 13.0549 6.76725 12.9598C6.90692 12.8462 7.21212 12.6535 7.39834 12.569C7.40351 12.569 7.50955 12.5056 7.61042 12.4501C7.61042 12.4818 7.61042 12.532 7.61042 12.532C7.64146 14.7185 7.76302 16.3082 7.99838 17.5335V17.5546L8.02425 17.6048C8.13805 17.7764 8.26996 18.2967 8.38635 18.7535L8.65275 19.6672L8.72775 19.7517C8.88035 19.8573 9.34332 20.0395 9.65369 20.0025L9.73128 19.992L9.78042 19.8811C9.80628 19.7438 9.81663 19.6091 9.81663 19.4612C9.81663 19.2948 9.8037 19.11 9.79077 18.8855L9.77007 18.5554C9.67179 17.0291 9.57351 14.8241 9.57351 13.3585V13.2424C9.82956 13.4034 10.9391 14.1191 10.9391 14.1191C12.8298 15.3708 15.6878 17.2641 17.4129 17.7632C17.5034 17.7896 17.5965 17.7685 17.6638 17.7051C17.6638 17.7025 17.9302 17.5309 17.9302 17.5309L17.9793 17.5097C18.0776 17.4622 18.1449 17.2905 18.1552 17.1057C19.6114 17.0318 21.6391 16.4587 22.7254 15.0644C23.1444 14.5231 23.3358 13.8629 23.3358 13.2978C23.3358 12.833 23.2091 12.4317 22.9815 12.2125" fill="#F8B500"/>
</g>
<defs>
<clipPath id="clip0_1381_1280">
<rect width="22" height="16" fill="white" transform="translate(1.33325 4)"/>
</clipPath>
</defs>
</svg>
