<svg width="25" height="24" viewBox="0 0 25 24" fill="none" xmlns="http://www.w3.org/2000/svg">
<mask id="mask0_1381_1425" style="mask-type:luminance" maskUnits="userSpaceOnUse" x="6" y="9" width="5" height="6">
<path d="M6.15515 9H10.2236V14.4247H6.15515V9Z" fill="#0F0060"/>
</mask>
<g mask="url(#mask0_1381_1425)">
<path fill-rule="evenodd" clip-rule="evenodd" d="M8.18568 13.4629C7.62638 13.4629 7.17144 13.0139 7.17144 12.4619C7.17144 11.9099 7.62638 11.4609 8.18568 11.4609C8.74499 11.4609 9.19992 11.9099 9.19992 12.4619C9.19992 13.0139 8.74499 13.4629 8.18568 13.4629ZM8.35573 10.4967C7.95592 10.4967 7.58592 10.6365 7.31393 10.8905L7.22031 10.9778V9H6.15515V12.38C6.15515 13.6411 6.91901 14.4247 8.14864 14.4247C9.35101 14.4247 10.2236 13.6002 10.2236 12.4643C10.2236 11.3242 9.43799 10.4967 8.35573 10.4967Z" fill="#0F0060"/>
</g>
<path fill-rule="evenodd" clip-rule="evenodd" d="M4.45443 9L2.38919 11.4009V9H1.33325V14.274H2.38919V11.8942L4.49638 14.274H5.8538L3.52242 11.637L5.79069 9H4.45443Z" fill="#0F0060"/>
<mask id="mask1_1381_1425" style="mask-type:luminance" maskUnits="userSpaceOnUse" x="19" y="9" width="5" height="6">
<path d="M19.7168 9H23.3332V14.274H19.7168V9Z" fill="#0F0060"/>
</mask>
<g mask="url(#mask1_1381_1425)">
<path fill-rule="evenodd" clip-rule="evenodd" d="M23.3332 10.6128H22.1462L20.7824 12.1938V9H19.7168V14.274H20.7824V12.6929L22.1462 14.274H23.3332L21.7542 12.4434L23.3332 10.6128Z" fill="#0F0060"/>
</g>
<path fill-rule="evenodd" clip-rule="evenodd" d="M17.7186 10.5068C17.0796 10.5068 16.6852 10.8075 16.4969 11.0181V10.6315H15.4977V14.274H16.5329L16.5328 12.2903C16.5328 11.7944 16.8763 11.4481 17.3059 11.4481C17.7356 11.4481 18.079 11.7944 18.079 12.2903V14.274H19.1141V11.9779C19.1141 11.1256 18.4995 10.5068 17.7186 10.5068Z" fill="#0F0060"/>
<mask id="mask2_1381_1425" style="mask-type:luminance" maskUnits="userSpaceOnUse" x="10" y="10" width="5" height="5">
<path d="M10.6757 10.5068H14.7442V14.4246H10.6757V10.5068Z" fill="#0F0060"/>
</mask>
<g mask="url(#mask2_1381_1425)">
<path fill-rule="evenodd" clip-rule="evenodd" d="M12.7344 13.4654C12.1821 13.4654 11.7329 13.0175 11.7329 12.4671C11.7329 11.9165 12.1821 11.4686 12.7344 11.4686C13.2867 11.4686 13.7359 11.9165 13.7359 12.4671C13.7359 13.0175 13.2867 13.4654 12.7344 13.4654ZM12.7026 10.5068C11.5282 10.5068 10.6757 11.3322 10.6757 12.4694C10.6757 13.6023 11.4612 14.4247 12.5434 14.4247C13.3127 14.4247 13.7237 13.8694 13.7277 13.8638L13.7873 13.7816V14.3019H14.7442V12.4694C14.7442 11.3322 13.8856 10.5068 12.7026 10.5068Z" fill="#0F0060"/>
</g>
</svg>
