<svg width="25" height="24" viewBox="0 0 25 24" fill="none" xmlns="http://www.w3.org/2000/svg">
<g clip-path="url(#clip0_1381_1533)">
<path d="M18.3374 15.3478L18.3207 15.3447L18.2902 15.3036L18.275 15.3006L18.2035 15.2154L18.1563 15.1712V15.1575L18.1243 15.1301V15.1149H18.1167L18.1 15.0905L18.0848 15.086L18.0771 15.0708L18.0376 15.0555V15.0494L18.0056 15.0373V15.0297L17.9752 15.0175L17.966 15.0023L17.9188 14.9794V14.9718L17.896 14.9596L17.8884 14.9429L17.8579 14.9307L17.8503 14.9155L17.8351 14.9124L17.8275 14.8957L17.8031 14.8835L17.7879 14.8592L17.7727 14.8561L17.7651 14.8409L17.7499 14.8379L17.7194 14.7968L17.7042 14.7937L17.6418 14.7176L17.6266 14.7146V14.7069L17.6022 14.6887V14.675L17.5383 14.6126V14.5989L17.5231 14.5882L17.4972 14.5532V14.538L17.5368 14.4954L17.5535 14.4984L17.5687 14.4786L17.584 14.4817L17.5916 14.468L17.6159 14.4649V14.4573L17.6311 14.4604L17.6388 14.4467L17.654 14.4497L17.6616 14.436L17.6768 14.439L17.6844 14.4253L17.7088 14.4223L17.7316 14.3979L17.7484 14.401L17.756 14.3873L17.7712 14.3903L17.8184 14.3477L17.8427 14.3447V14.3295L17.8884 14.2944L17.9204 14.2792L17.928 14.2579L17.9508 14.2473V14.232L17.9752 14.2214V14.2062L17.9904 14.2016V14.1879L18.0056 14.1833V14.1681L18.0208 14.1635L18.0284 14.1437H18.036L18.0437 14.1179L18.0589 14.1133L18.0665 14.0859L18.0893 14.0829L18.1122 14.057L18.1274 14.0615L18.1426 14.0418L18.1578 14.0448L18.1654 14.0311L18.1806 14.0341L18.2126 14.0037L18.2294 14.0067L18.2842 13.9596L18.2994 13.9626L18.307 13.9504L18.3298 13.9398V13.9261H18.3374L18.3694 13.8972L18.3861 13.9002V13.8865L18.4014 13.8682L18.4318 13.853V13.8378L18.4546 13.8271V13.8134L18.479 13.8028V13.7876L18.4942 13.7845V13.7617L18.5094 13.7647V13.7419L18.5795 13.6977V13.684L18.6419 13.6673V13.6521L18.6875 13.6384V13.6247L18.7591 13.5942V13.579L18.7743 13.5821L18.8291 13.512L18.8443 13.5151V13.5014L18.8611 13.5044V13.4892L18.8763 13.4923L18.9067 13.4542V13.4314L18.9311 13.4207L18.9463 13.3796L18.963 13.3827L18.9783 13.3339L18.9935 13.337V13.3081L19.0087 13.3111V13.2822L19.0239 13.2852L19.0315 13.2502H19.0392L19.0483 13.2015H19.0559V13.1893H19.0635V13.1619H19.0711V13.1482H19.0787V13.1132L19.094 13.1087V13.0569L19.1092 13.0523V12.9869L19.1244 12.9823V12.859H19.1305V12.8301H19.1381L19.1214 12.7342V12.6109L19.1031 12.6018V12.5363L19.0863 12.5257V12.4739L19.0696 12.4633V12.4267H19.062V12.4115H19.0529V12.3811H19.0452V12.3582H19.0376V12.343H19.03V12.3126H19.0209L19.0133 12.273L18.9981 12.2699V12.2654H18.9996L19.0148 12.2699L19.0224 12.2867L19.0376 12.2897L19.0529 12.3141L19.0681 12.3171L19.0757 12.3324L19.0909 12.3354L19.1229 12.3765L19.1381 12.3795L19.2005 12.4557L19.2477 12.4937L19.272 12.5333L19.2873 12.5363L19.2949 12.5592L19.3345 12.5957V12.6094L19.374 12.6459V12.6596L19.3908 12.6688V12.684L19.4136 12.7022V12.7175L19.4304 12.7266V12.7418L19.4456 12.751L19.4532 12.7738H19.4608L19.9418 13.3081L19.957 13.3172V13.3324L19.9722 13.3431L19.9814 13.3659H19.989L20.1001 13.4953L20.1153 13.4983L20.1321 13.5227L20.1473 13.5257L20.1717 13.5577L20.1869 13.5608L20.2097 13.5942L20.2249 13.5973L20.2721 13.6566L20.3741 13.7617L20.4061 13.8028L20.54 13.9428L20.5476 13.958L20.5796 13.9702L20.5872 13.9854L20.6177 13.9976L20.6268 14.0144L20.9327 14.3142L20.948 14.3173L20.9723 14.3584H20.9799V14.3736L20.9967 14.3842V14.3919L21.0134 14.4025V14.4177L21.0286 14.4269V14.4421L21.0515 14.4604L21.1778 14.5913L21.193 14.5943L21.2006 14.6095L21.2174 14.6126L21.2326 14.6369L21.2478 14.64L21.2631 14.6643L21.2798 14.6674L21.3042 14.7009H21.3194L21.3818 14.78L21.397 14.7831V14.7891L21.4198 14.8089V14.8226L21.4914 14.8927L21.5949 14.9901V14.9977L21.6101 15.0007V15.0083L21.6253 15.0175L21.6558 15.0312L21.6954 15.0601L21.703 15.0753L21.7273 15.0936L21.7425 15.0966L21.7654 15.1149L21.773 15.1316L21.7973 15.1499H21.8126L21.8278 15.1697L21.8369 15.1864L21.9633 15.3097L22.1444 15.4924L22.1611 15.5091L22.1764 15.5122L22.184 15.5274L22.5843 15.8958V15.9019L22.6087 15.9201L22.8446 16.1789L22.8598 16.1819L22.8918 16.2246L22.907 16.2276L22.9146 16.2428L22.9618 16.287L22.9938 16.322L23.0333 16.3722L23.0653 16.4133L23.0897 16.4468L23.1049 16.4712L23.1292 16.5183L23.1597 16.5594L23.1764 16.5914L23.184 16.6066L23.2084 16.6538V16.6751H23.216L23.2251 16.7056H23.2312V16.7284H23.2388V16.7436H23.2464V16.7665H23.2541V16.7893H23.2617V16.8121H23.2693L23.318 17.0313V17.1166L23.3271 17.1181L23.3226 17.3038H23.3149V17.3525H23.3073V17.3875H23.2982V17.421H23.2906V17.4484H23.283V17.4758H23.2754V17.4971H23.2678L23.2601 17.5443H23.2525V17.5565H23.2449V17.5763H23.2373V17.5884H23.2297V17.6097H23.2221L23.2069 17.6478H23.1993V17.66H23.1901V17.6721H23.1825V17.6858H23.1749L23.1597 17.7239H23.1521L23.1445 17.7422L23.1292 17.7467L23.1216 17.7741L23.1064 17.7787V17.7924L23.0836 17.8031V17.8168L23.0607 17.8274V17.8411L23.0303 17.8579V17.8731L22.9603 17.9157L22.8994 17.969L22.8842 17.9659L22.8629 17.9903L22.8476 17.9872L22.8324 18.0055L22.8172 18.0025L22.8005 18.0207H22.7852L22.7776 18.0314L22.7533 18.0344V18.042H22.7228L22.7152 18.0557L22.668 18.0618L22.6604 18.074L22.5919 18.0831V18.0892H22.5615V18.0984L22.5386 18.0938V18.1014L22.5234 18.0984V18.1044L22.5006 18.0999V18.1075L22.4762 18.1029V18.1105L22.4534 18.106V18.1136L22.4306 18.109V18.1151L22.3986 18.109V18.1166L22.3682 18.1105V18.1181L22.3286 18.1105V18.1181C22.3286 18.1181 22.0957 18.0892 22.0028 18.0649C21.9085 18.0405 21.6725 17.9537 21.6725 17.9537L21.6375 17.9416L21.6269 17.937V17.9294L21.5873 17.9142V17.9081L21.5568 17.8944V17.8868L21.5325 17.8822V17.8746L21.5005 17.8624V17.8548L21.4685 17.8411L21.4594 17.8259L21.4137 17.8031V17.797L21.1854 17.6554V17.6478L21.155 17.6417V17.6341L21.1321 17.6295V17.6219L21.1078 17.6173V17.6097L21.085 17.5976L20.7242 17.351H20.709L20.677 17.3068L20.6618 17.3038L20.4426 17.1348V17.1272L20.4106 17.115V17.1074L20.3863 17.1029V17.0968L20.3391 17.0739V17.0663L20.3239 17.0633V17.0557L20.2919 17.0435L20.2843 17.0267L20.2386 17.0039L20.2295 16.9887L20.2143 16.9856V16.978L20.1914 16.9674L20.1838 16.9522L20.1686 16.9491L20.1519 16.9248L20.1366 16.9217L20.129 16.9065L20.1138 16.9034L20.0818 16.8623L20.0666 16.8593L19.8079 16.6462V16.6386L19.7607 16.6158V16.6081L19.7454 16.6051V16.599L19.7302 16.596V16.5899L19.683 16.567L19.6754 16.5518L19.6435 16.5381L19.6358 16.5229L19.6039 16.5092L19.5887 16.4849H19.5719L19.5643 16.4666L19.5491 16.4635L19.5323 16.4392C19.5323 16.4392 19.2644 16.2291 19.1655 16.1348C19.0666 16.0404 18.7439 15.7527 18.7088 15.7146L18.6784 15.6872V15.6735L18.6388 15.6385L18.6312 15.6157L18.616 15.5913L18.3329 15.3387L18.3374 15.3478Z" fill="#AACF52"/>
<path d="M12.6918 13.649V13.6627L12.7542 13.7038V13.719L12.8196 13.7586V13.7738L12.8424 13.7784V13.786L12.8501 13.8012L12.8744 13.8271L12.8912 13.8301V13.8529L12.9079 13.856L12.9231 13.8956H12.9307V13.9108L12.9475 13.9214V13.9427L12.9627 13.9458V13.961L12.9794 13.9641L12.9962 14.0021L13.0114 14.0052V14.0204L13.0282 14.0234L13.0677 14.0889L13.083 14.0919V14.1056L13.1469 14.1543V14.1696L13.1636 14.1726V14.1863L13.2032 14.2076V14.2228L13.2199 14.2259V14.2411L13.2747 14.2731L13.2824 14.2883L13.3067 14.2928L13.3143 14.3096L13.3311 14.3126V14.3202L13.3539 14.3309V14.3461L13.3859 14.3522V14.3674L13.4254 14.3887L13.5381 14.5257V14.5394L13.5548 14.5425L13.6416 14.6384V14.6536L13.6583 14.6566V14.6703L13.6827 14.6749V14.6901L13.6979 14.6932V14.7069L13.8014 14.7769L13.8334 14.8043V14.8134L13.8486 14.8165V14.8226L13.8653 14.8256L13.873 14.8408L13.8973 14.8454L13.9049 14.8621L13.9293 14.8667V14.8743L13.9597 14.8865V14.9017L14.0008 14.923V14.9367L14.016 14.9398V14.955L14.0313 14.958L14.0571 14.9839V14.9991L14.0724 15.0022V15.0174L14.0876 15.0189L14.1287 15.0631V15.0783L14.1439 15.0813L14.2718 15.1925V15.2062L14.2961 15.2107V15.2259L14.3357 15.2473V15.2533L14.3601 15.2594L14.3585 15.2655L14.3905 15.2792V15.2944L14.424 15.299V15.3142L14.4788 15.331L14.4864 15.3477L14.5184 15.3538V15.3675L14.5579 15.3751L14.5655 15.3919L14.6051 15.3995V15.4071L14.6295 15.4101V15.4177L14.6614 15.4238V15.4299L14.7162 15.4406L14.7239 15.4573L14.8121 15.4741L14.8198 15.4893L14.8989 15.5045V15.5121L14.9217 15.5152V15.5228L14.9628 15.5304V15.538L14.9781 15.541L14.9857 15.5563L15.0496 15.576V15.5897L15.3342 15.6719L15.4378 15.6902V15.6841L15.453 15.6872V15.6796L15.6037 15.6932V15.678L15.7452 15.6689V15.6537H15.7681L15.7605 15.6582V15.6735L15.7224 15.6948L15.6752 15.7283V15.7435L15.6524 15.7465L15.5991 15.7937L15.5839 15.7907L15.5595 15.815L15.5443 15.812L15.5215 15.8363L15.5063 15.8333L15.491 15.8516L15.4758 15.85L15.4667 15.8622L15.4438 15.8653V15.8713L15.4286 15.8698L15.421 15.882L15.3982 15.885V15.8927L15.351 15.8972L15.3434 15.9109H15.3129V15.9185L15.2977 15.917V15.9231L15.281 15.9201V15.9277L15.2353 15.9338V15.9414L15.2125 15.9368V15.9429L15.2079 15.9627L15.1927 15.9581L15.1546 15.9946L15.1196 15.9901V16.0053L15.074 16.0327L15.0039 16.0921L14.9872 16.089L14.9263 16.1271L14.8335 16.1697L14.8106 16.1727V16.1803L14.7954 16.1773L14.7878 16.1895L14.7558 16.191L14.7482 16.2047L14.733 16.2017L14.7178 16.2123L14.7025 16.2108V16.2169L14.6858 16.2154V16.2214L14.6706 16.2184V16.226L14.6554 16.223V16.2306L14.6401 16.2275V16.2336L14.6234 16.2321L14.6249 16.2382L14.5777 16.2443V16.2519L14.5549 16.2473V16.2549L14.5397 16.2519V16.2595L14.5153 16.2549L14.5168 16.261L14.494 16.2686V16.2762L14.4697 16.2717V16.2793L14.4468 16.2747V16.2808L14.3387 16.325L14.3083 16.3554L14.2916 16.3524L14.2611 16.3828L14.2459 16.3798L14.2307 16.398L14.2154 16.3965L14.2002 16.4148L14.1835 16.4117L14.1759 16.4254H14.1454L14.1378 16.4391L14.1135 16.4422V16.4498L14.0815 16.4513L14.0754 16.4635L14.0297 16.4696V16.4756L14.0145 16.4741V16.4802L13.9978 16.4772V16.4848L13.9826 16.4817V16.4893L13.9354 16.4954V16.5015L13.9125 16.497V16.5046L13.8973 16.5015V16.5091L13.873 16.5046L13.8745 16.5122L13.8577 16.5091V16.5167L13.8349 16.5122V16.5198L13.8121 16.5152V16.5213L13.6644 16.5807L13.6492 16.5776L13.6188 16.6081L13.6035 16.605L13.5868 16.6233L13.5716 16.6203L13.5563 16.64L13.5411 16.6355L13.5335 16.6492L13.5183 16.6461L13.5015 16.6644L13.4711 16.6659L13.4635 16.6796L13.4331 16.6811L13.4254 16.6933L13.3783 16.6994L13.3706 16.7116L13.3478 16.7085L13.3402 16.7207L13.0845 16.7664L13.0525 16.7618V16.7679L13.0221 16.7633V16.7694L12.9916 16.7633V16.771L12.9597 16.7649V16.7725L12.9201 16.7649V16.7725L12.882 16.7649V16.7725L12.8196 16.7603V16.7679L12.5319 16.7207V16.7146L12.4375 16.6979V16.6903L12.3751 16.6781V16.672L12.3295 16.6629V16.6553L12.2975 16.6492V16.6431L12.2579 16.6355V16.6279L12.1727 16.5974V16.5913L12.1499 16.5868V16.5792L12.0951 16.5624V16.5548L12.0783 16.5518V16.5441L12.0555 16.5396V16.5335L12.0387 16.5304V16.5228L12.0159 16.5183V16.5122L11.9855 16.4985L11.9839 16.4909L11.9611 16.4878V16.4802L11.9139 16.4559V16.4498L11.8987 16.4467V16.4391L11.8683 16.4269L11.8591 16.4117L11.8119 16.3889L11.8043 16.3721L11.7724 16.36L11.7739 16.3524L11.7495 16.3402L11.7419 16.325L11.7252 16.3219L11.7176 16.3067L11.7023 16.3036L11.6871 16.2793L11.6719 16.2762L11.6551 16.2519L11.6399 16.2488L11.6247 16.2245L11.6004 16.2123L11.5303 16.1286L11.5151 16.1255L11.4588 16.0494L11.4436 16.0479L11.404 15.9962V15.9825L11.3888 15.9733V15.9657L11.372 15.9551V15.9414L11.3492 15.9216L11.3477 15.9079L11.3248 15.8896V15.8744L11.3096 15.8653L11.3005 15.8424L11.2929 15.8409V15.8257L11.2777 15.8165L11.27 15.7937L11.2609 15.7922L11.2533 15.7617L11.2381 15.7511L11.2366 15.7374L11.2213 15.7191V15.7054L11.2137 15.7039V15.6902L11.2061 15.6887V15.6735L11.1985 15.6719L11.1818 15.6263L11.1741 15.6248L11.1665 15.5882L11.1574 15.5867V15.5715L11.1498 15.57V15.5486L11.1422 15.5471L11.1346 15.5167H11.1254L11.1102 15.4406L11.1026 15.439V15.4177L11.0935 15.4162V15.3949L11.0859 15.3934L11.0767 15.3416H11.0691V15.3127L11.0615 15.3097L11.0524 15.2229L11.0691 14.6171L11.0767 14.6186V14.5973L11.0843 14.5988V14.5775L11.0919 14.579L11.1148 14.4892L11.1224 14.4907V14.477L11.13 14.4786V14.4572L11.1361 14.4588L11.1437 14.4314L11.1513 14.4329V14.4101L11.1604 14.4116L11.1681 14.3842L11.1757 14.3857V14.3644L11.1909 14.3598V14.3461L11.2061 14.3355V14.3202L11.2137 14.3218L11.2122 14.3081H11.2213V14.2944L11.2366 14.2913L11.2442 14.2624L11.2594 14.2594V14.2441L11.2746 14.2396L11.2822 14.2122L11.2974 14.2076V14.1939L11.3203 14.1833V14.1696L11.3431 14.1589V14.1452L11.3812 14.1239V14.1087L11.4131 14.0934V14.0797L11.4283 14.0676L11.4512 14.0645V14.0508L11.4664 14.0463L11.4816 14.028L11.5197 14.0128V13.9991L11.5349 13.9869L11.5516 13.9899L11.5745 13.9656L11.5897 13.9686L11.6201 13.9397L11.6354 13.9412L11.6506 13.923L11.6673 13.926L11.6825 13.9077L11.6978 13.9108L11.7054 13.8971L11.7358 13.8956L11.7434 13.8834L11.7678 13.8803V13.8727L11.7998 13.8712L11.8058 13.859L11.8211 13.8621L11.8378 13.8499L11.853 13.8529V13.8453L11.8683 13.8484V13.8423L11.8835 13.8438L11.8911 13.8316L11.9139 13.8347V13.8286L11.9459 13.8271V13.8195L11.9687 13.824V13.8179L11.9992 13.8164V13.8088L12.0235 13.8134V13.8058L12.0387 13.8088V13.8012L12.1392 13.7997V13.7921L12.1636 13.7966V13.7875L12.1864 13.7936V13.786L12.2792 13.7875L12.2869 13.7753L12.3021 13.7784L12.3173 13.7601L12.3325 13.7631L12.3493 13.7449L12.3645 13.7479L12.3797 13.7281L12.3949 13.7312L12.4041 13.719L12.4345 13.7175L12.4421 13.7038L12.4573 13.7068L12.4649 13.6946L12.4802 13.6962L12.4878 13.684L12.503 13.687L12.5182 13.6748L12.535 13.6779L12.5334 13.6718L12.5502 13.6733V13.6672L12.5654 13.6703L12.6781 13.6414L12.6918 13.649Z" fill="#AACF52"/>
<path d="M15.2094 12.4129L15.1866 12.4372L15.1699 12.4418L15.1714 12.4555L15.1562 12.4677L15.1409 12.4631L15.1318 12.4768L15.1166 12.4738V12.4814L15.1014 12.4783V12.4859L15.0785 12.4814V12.4875L15.0313 12.4936V12.5012L15.0161 12.4981V12.5057L14.9689 12.5118L14.9628 12.524L14.9309 12.5255L14.9233 12.5377L14.908 12.5362L14.8989 12.5483L14.8852 12.5453L14.8776 12.559L14.8609 12.556L14.8532 12.5681L14.838 12.5666L14.8304 12.5788L14.7924 12.5894L14.7939 12.591V12.6047L14.8258 12.626V12.6412L14.8883 12.6899L14.8898 12.7036L14.905 12.7067V12.7204L14.9217 12.7249V12.7386L14.937 12.7417L14.9385 12.7569L14.9537 12.7584L14.9933 12.8239L15.01 12.8269L15.0268 12.8665L15.0405 12.8695V12.8847L15.0572 12.8878L15.0983 12.9746L15.1135 12.9776L15.1455 13.0415L15.1775 13.0765L15.2262 13.1009V13.1146L15.2566 13.1283V13.142L15.2977 13.1648V13.1785L15.3129 13.1816L15.3145 13.1968L15.3297 13.1998V13.2151L15.3693 13.2577L15.386 13.2607V13.2759L15.4012 13.279V13.2927L15.418 13.2957L15.4728 13.3855L15.4895 13.3886V13.4038L15.5047 13.4069V13.4282L15.5215 13.4312L15.5382 13.4784L15.5458 13.4799L15.5611 13.5195L15.5778 13.521L15.593 13.5606L15.6098 13.5636L15.6585 13.6017V13.6169L15.6722 13.62V13.6337L15.73 13.6656V13.6808L15.7452 13.6839L15.7696 13.725L15.7848 13.7265V13.7433L15.8016 13.7448L15.8259 13.7859L15.8411 13.7889V13.8026L15.8564 13.8057L15.8822 13.8605L15.8975 13.8635V13.8787L15.9127 13.8818L15.9386 13.9366L15.9523 13.9411L15.9538 13.9624L15.969 13.9655L15.9781 13.9883L15.9857 13.9898L15.9934 14.0279L16.0101 14.0386V14.0523L16.0268 14.0629V14.0842L16.0421 14.0949L16.0497 14.1405L16.0664 14.1497V14.1786L16.074 14.1801L16.0832 14.2182L16.0969 14.2212L16.1075 14.2958L16.1151 14.2973V14.3126L16.1227 14.3141L16.1243 14.3567L16.141 14.3673L16.1486 14.4343L16.1638 14.445L16.1806 14.5059L16.1973 14.5089L16.2125 14.5698L16.2278 14.5728L16.2369 14.6261L16.2521 14.6276L16.2628 14.7022L16.278 14.7053L16.3039 14.9656L16.2963 14.9625L16.2978 15.0797L16.2902 15.0782L16.2917 15.13L16.2826 15.1284L16.2841 15.1711L16.2673 15.1756L16.2613 15.2335L16.2445 15.2304L16.2065 15.3461L16.1897 15.3431L16.1288 15.4496L16.1121 15.4527L16.1045 15.4511L16.106 15.4724L16.0893 15.4709V15.477L16.0588 15.4938L16.036 15.512V15.5333L15.9797 15.5516V15.5638L15.9934 15.5653L15.9994 15.5516L16.0147 15.5546L16.0223 15.5425L16.039 15.5455L16.0466 15.5318L16.0619 15.5349V15.5272L16.0847 15.5257L16.0923 15.512L16.1075 15.5151L16.1319 15.4907L16.1471 15.4938L16.1791 15.4633L16.1928 15.4664L16.2476 15.4192L16.2628 15.4222V15.4146L16.2856 15.4055L16.2947 15.3842L16.348 15.3522V15.337L16.3861 15.3157V15.302L16.4013 15.2974V15.2898L16.418 15.2867L16.4165 15.2715L16.4333 15.267V15.2533L16.447 15.2487V15.2335L16.4698 15.2243L16.4942 15.1893L16.5246 15.1741L16.5322 15.1619L16.5474 15.1634L16.555 15.1391L16.5703 15.1421L16.5779 15.13L16.5946 15.1315L16.6007 15.1193L16.6159 15.1223L16.6251 15.1102L16.6479 15.1071L16.6783 15.0767L16.6936 15.0797L16.7255 15.0493L16.7407 15.0523V15.0447L16.756 15.0401V15.0265L16.7712 15.0295L16.8016 14.9991L16.8092 15.0006V14.9869L16.8397 14.9777V14.9625L16.8793 14.9412V14.9275L16.9097 14.9123V14.8971L16.9341 14.8986V14.8849L16.9949 14.8453L17.0254 14.8438L17.033 14.8194L17.065 14.8179V14.8118L17.0878 14.8088L17.0954 14.7951L17.1106 14.7981V14.7905L17.1335 14.789L17.1411 14.7753L17.1563 14.7783L17.1715 14.7601L17.1883 14.7631L17.1959 14.7494L17.2035 14.7509L17.2111 14.7388L17.2263 14.7403V14.7342L17.2568 14.7251V14.7114L17.4044 14.617L17.4029 14.6018L17.4257 14.5926V14.5774L17.4501 14.5683L17.476 14.5409L17.4562 14.5089L17.4486 14.5074L17.4394 14.4769L17.4166 14.4587L17.4075 14.4206L17.3998 14.4191L17.3679 14.3689L17.2628 14.2989V14.2836L17.24 14.273L17.2324 14.2562L17.2157 14.2547L17.1913 14.2212L17.1761 14.2182L17.1365 14.174L17.1198 14.1497L17.1045 14.1466L17.0802 14.1055L17.065 14.1025L17.0239 14.0446L17.0163 14.0431V14.0279L16.9675 13.9822V13.9685L16.9523 13.9579V13.9442L16.9356 13.9335V13.9183L16.9204 13.9016L16.9051 13.8985L16.8473 13.7783L16.8306 13.7752L16.7666 13.626L16.7499 13.6154V13.6002L16.7423 13.5987L16.7347 13.553L16.727 13.5515L16.7255 13.5302H16.7179V13.5073L16.7103 13.5058V13.4845L16.7027 13.483L16.7012 13.454L16.6936 13.4525L16.6844 13.4069L16.6768 13.4053V13.3916L16.6692 13.3886V13.3597H16.6616L16.6601 13.3155L16.6525 13.314V13.2775L16.6448 13.2759L16.6433 13.2166L16.6357 13.2151L16.6266 13.04L16.6174 13.0385V13.0172L16.6022 13.0065L16.5931 12.9532L16.5779 12.9502L16.5687 12.9198L16.5611 12.9182V12.8893L16.5535 12.8878V12.8665L16.5368 12.8558L16.5352 12.8193L16.52 12.8163L16.5124 12.7417H16.5033V12.7264L16.4957 12.7249L16.4942 12.6747L16.4789 12.6625V12.5834L16.4622 12.5727L16.4591 12.3474L16.4744 12.3429V12.2637L16.4911 12.2652L16.4972 12.1952H16.5048V12.1663L16.5124 12.1678V12.1313L16.5276 12.1267V12.0978L16.5444 12.0947L16.552 12.0445L16.5672 12.0476L16.59 11.9714L16.6053 11.9745V11.9532L16.6205 11.9562L16.6829 11.8573L16.6996 11.8603L16.7225 11.8147L16.7377 11.8177V11.8025L16.7529 11.8055L16.791 11.7538L16.8077 11.7568V11.7431L16.8306 11.7477L16.8549 11.7294L16.8534 11.7157L16.8701 11.7188V11.7035L16.8869 11.7066L16.9006 11.6883L16.9173 11.6898L16.9249 11.6777L16.9478 11.6746V11.6594L16.9889 11.6381L17.0589 11.629V11.6153L17.138 11.6076L17.1365 11.5924L17.2081 11.5848L17.2324 11.5894V11.5818L17.2491 11.5848V11.5772L17.2796 11.5833L17.2872 11.5696L17.374 11.5787L17.3816 11.5665L17.4531 11.5787L17.4607 11.5665L17.5871 11.5894L17.6038 11.5848L17.8169 11.632V11.6472L17.9904 11.7005V11.7157L18.03 11.7218L18.0315 11.737L18.1259 11.7766V11.7903L18.2051 11.8268V11.8421L18.237 11.8558V11.8634L18.2614 11.8664L18.2766 11.8923L18.301 11.8953V11.9029L18.3177 11.906V11.9136L18.3801 11.9258V11.9334L18.4349 11.9425V11.9501L18.476 11.9577V11.9638L18.5217 11.973V11.9806L18.5537 11.9867L18.5613 12.0019L18.5932 12.008V12.0156L18.6176 12.0202V12.0278L18.6419 12.0323V12.0399L18.6739 12.046V12.0521L18.785 12.1024V12.1161L18.9433 12.2043V12.218L18.9707 12.2317L18.9616 12.2196V12.2059L18.9449 12.1952V12.1815L18.9296 12.1632V12.148L18.9129 12.1389L18.9053 12.1084L18.8901 12.0993V12.0841L18.8824 12.0826L18.8748 12.0597L18.8581 12.0491V12.0354L18.8276 12.008V11.9943L18.7957 11.9669V11.9517L18.7394 11.8999L18.7317 11.8755L18.7165 11.8725V11.8588L18.6998 11.8558L18.5902 11.7492L18.575 11.7249L18.5582 11.7218L18.5506 11.7066L18.5354 11.7035L18.5202 11.6792L18.4882 11.667L18.4806 11.6503L18.4562 11.6381V11.632L18.4106 11.6092V11.6016L18.3938 11.5985V11.5909L18.3466 11.5696V11.5605L18.3086 11.5468V11.5407L18.2918 11.5376V11.53L18.269 11.5254V11.5178L18.2538 11.5148V11.5087L18.2294 11.5041V11.4965L18.2142 11.4935V11.4874L18.1594 11.4691V11.4615L18.1366 11.4585V11.4509L18.1046 11.4448V11.4387L18.0666 11.4311V11.4235L18.027 11.4159V11.4082L17.9022 11.3778V11.3717L17.5597 11.323V11.3291L17.5201 11.323V11.3291L17.4805 11.323L17.482 11.3291L17.4592 11.3245V11.3321L17.4272 11.326V11.3337L17.3968 11.3276V11.3352L17.3801 11.3321V11.3382H17.3344V11.3458L17.3192 11.3413V11.3489L17.2948 11.3458V11.3519L17.2644 11.3534V11.3611L17.2415 11.3565V11.3641L17.1944 11.3702V11.3763L17.1791 11.3732V11.3808L17.1487 11.3824L17.1411 11.3961H17.1091L17.1015 11.4098L17.0863 11.4067V11.4143L17.0634 11.4159L17.0558 11.4296L17.0391 11.4265L17.0254 11.4448L17.0086 11.4417L16.9934 11.4615L16.9782 11.4585L16.9554 11.4828L16.9386 11.4798L16.106 11.9486H16.074V11.9577L16.0512 11.9593L16.0436 11.973L16.0284 11.9699V11.976L15.9964 11.9928L15.7422 12.1465V12.1602L15.727 12.1648L15.7041 12.1891L15.6874 12.1861L15.6722 12.1967L15.2094 12.4129Z" fill="#AACF52"/>
<path d="M5.48422 11.5849L5.49945 11.5514L5.50706 11.553L5.51467 11.5256L5.52228 11.5271V11.5119L5.52989 11.5134V11.4921L5.5375 11.4936L5.55272 11.454H5.56033V11.4403L5.56794 11.4418V11.4281L5.57555 11.4297V11.4144L5.58317 11.416V11.4023L5.59078 11.4038V11.3886L5.606 11.3779V11.3627L5.62122 11.3596L5.62883 11.3307L5.64405 11.3277L5.65166 11.3003L5.66688 11.2957V11.282L5.6745 11.2835V11.2683L5.68972 11.2638V11.2501L5.70494 11.2455V11.2318L5.72016 11.2272V11.212L5.73691 11.209V11.1937L5.75822 11.1846V11.1709L5.78257 11.1602V11.145L5.82062 11.1237V11.11L5.83585 11.1054V11.0978L5.85107 11.0933V11.0796L6.04286 10.8421L6.05047 10.8436L6.07026 10.8193L6.07787 10.8208V10.7995L6.08701 10.801L6.08548 10.7858L6.09309 10.7873V10.766L6.10223 10.7675L6.11593 10.7279H6.12354V10.7142L6.13115 10.7158V10.7021L6.13876 10.7036V10.6884L6.14637 10.6899V10.6762L6.15398 10.6777V10.6625L6.16159 10.664V10.6503L6.1692 10.6518V10.6366L6.18595 10.626V10.6123L6.19965 10.6062L6.20878 10.5788L6.224 10.5757L6.23161 10.5483L6.24683 10.5438V10.5301H6.25445V10.5164L6.27728 10.5057L6.28489 10.4783L6.30772 10.4692V10.4555L6.33055 10.4448L6.36861 10.4022V10.387L6.38383 10.39L6.39905 10.3641L6.40666 10.3657V10.352L6.4158 10.3535L6.43863 10.3291L6.45385 10.3246V10.3093L6.46146 10.3124L6.48429 10.2865L6.49952 10.2896L6.70196 10.0688V10.0551L6.70958 10.0567L6.71719 10.0293L6.7248 10.0308V10.0171L6.73241 10.0186V10.0034L6.74154 10.0049L6.74002 9.99121L6.74763 9.99273V9.97751L6.75524 9.97903V9.96534L6.76285 9.96686V9.95164L6.77046 9.95316V9.93946L6.7796 9.94098L6.77807 9.92576L6.79329 9.9151V9.89988L6.81004 9.89684L6.81613 9.86792L6.84048 9.85878L6.84657 9.83138L6.86179 9.82682V9.81312L6.87093 9.81464L6.8694 9.80094L6.88615 9.79485L6.89376 9.77506L6.91659 9.76593V9.75071L6.93942 9.74158L6.94703 9.71418L6.98509 9.69287V9.67764L7.02467 9.65633V9.64263L7.13883 9.51325L7.14644 9.51477V9.49955L7.15405 9.50107L7.16166 9.45236L7.16927 9.45388L7.16775 9.44019L7.17688 9.44171L7.18449 9.39909L7.19211 9.40213V9.38691L7.19972 9.38843V9.36712L7.20733 9.36864L7.21342 9.34124L7.22255 9.34277V9.32146L7.23016 9.32298L7.24538 9.28188L7.25299 9.2834V9.2697L7.2606 9.27122V9.256L7.26821 9.25752V9.24382L7.27582 9.24535V9.23012L7.28344 9.23165V9.21795L7.29105 9.21947V9.20425L7.29866 9.20577V9.19207L7.31388 9.17989V9.16619L7.3291 9.16163L7.34432 9.12205L7.35954 9.11748V9.10378L7.38238 9.09313L7.38999 9.06573L7.40673 9.06116L7.40521 9.04746L7.42804 9.03681V9.02311L7.43717 9.02463L7.44326 9.00332L7.46001 9.00028V8.98505L7.49045 8.96983V8.95461L7.52851 8.9333V8.9196L7.57569 8.8922V8.8785L7.6655 8.73694L7.67463 8.73846L7.67311 8.72476L7.68072 8.72628L7.69594 8.66388L7.70356 8.6654V8.6517L7.71117 8.65322V8.63039L7.71878 8.63191L7.72639 8.60603L7.734 8.60756V8.58472L7.74161 8.58624L7.75683 8.54667H7.76444V8.53297L7.77205 8.53601V8.52079L7.78119 8.52231L7.77966 8.50709L7.78728 8.50861V8.49491L7.79489 8.49644V8.48121L7.80402 8.48426L7.8025 8.46904L7.81011 8.47056V8.45534L7.82533 8.44468V8.42946L7.84055 8.42489L7.84816 8.39902L7.86338 8.39445L7.871 8.36705L7.88774 8.36249V8.34879L7.90296 8.34422V8.33052L7.91666 8.32595V8.31073L7.9334 8.30769V8.29246L7.94863 8.2879L7.94254 8.26507L7.96689 8.25593V8.24071L7.99734 8.22549L8.00495 8.2057L8.07344 8.11133V8.07479L8.08106 8.07632V8.05501L8.08867 8.05653V8.03522L8.09628 8.03674V8.00782L8.10237 8.00934V7.98803L8.12368 7.99107V7.96976L8.13129 7.97129L8.12977 7.94998L8.1389 7.9515V7.93628L8.14651 7.9378L8.15412 7.8967L8.16173 7.89822L8.16021 7.883L8.16934 7.88452L8.16782 7.86321L8.17543 7.86626L8.18304 7.83733L8.19217 7.83886L8.19065 7.82516L8.19979 7.82668L8.19826 7.80537L8.2074 7.80689L8.22262 7.76579L8.23023 7.76731V7.75361L8.23784 7.75514L8.23632 7.73992L8.24545 7.74144L8.26067 7.70186L8.27589 7.69729V7.67598L8.29112 7.67142L8.29873 7.64402L8.31243 7.63945V7.62575L8.32765 7.62119V7.60749L8.34439 7.60292V7.5877L8.35961 7.58465V7.56943L8.37484 7.56487V7.55117L8.38245 7.55269L8.39006 7.5329L8.40528 7.52833V7.51311L8.42811 7.50398V7.48876L8.46617 7.46745V7.45375L8.58185 7.28783L8.58033 7.26652L8.58946 7.26804V7.24673L8.59555 7.24825V7.21933L8.60468 7.22085L8.60316 7.20563L8.61077 7.20868V7.18584L8.61838 7.18737V7.17367L8.62599 7.17519V7.15388L8.63361 7.1554V7.14018L8.64122 7.14322V7.12039L8.64883 7.12191L8.65644 7.09451L8.66405 7.09604V7.08234H8.67166L8.67318 7.06255L8.68688 7.05798V7.03515L8.69601 7.03667V7.02297L8.7021 7.02449V7.00927L8.71885 7.0047L8.71732 6.99101L8.73255 6.98035V6.96513L8.74168 6.96665V6.95295L8.74777 6.95447V6.93925L8.76451 6.93621L8.7706 6.90729L8.78734 6.90424V6.88902L8.80257 6.88445V6.87075L8.81779 6.86619V6.85249L8.83301 6.84792V6.83422L8.84823 6.82965V6.81443L8.87106 6.8053V6.7916L8.8939 6.78094V6.76572L8.99284 6.62721L9.00045 6.62873V6.60742H9.00806V6.58611L9.01567 6.58763V6.56632L9.02328 6.56936V6.53892L9.03089 6.54044V6.52674L9.0385 6.52826L9.05373 6.46585L9.06134 6.46738V6.45368L9.06895 6.4552V6.43389L9.07656 6.43541L9.08417 6.40801L9.09026 6.40953L9.09939 6.37452L9.107 6.37605L9.1207 6.33647H9.12983V6.32277L9.13744 6.32429V6.31059H9.14506V6.29689L9.15267 6.29842L9.15114 6.28472L9.16789 6.27254V6.25884L9.18311 6.25427L9.19072 6.22687L9.20594 6.22231L9.21355 6.19491L9.22878 6.19034L9.23639 6.16446L9.25922 6.15381V6.13859L9.27444 6.13554V6.12032L9.29118 6.11575L9.29727 6.09749L9.32163 6.08531L9.32011 6.07161L9.33685 6.06704V6.06096L9.35207 6.05639V6.04117L9.38252 6.02595V6.01072L9.58801 5.73521V5.71999L9.59562 5.72151V5.70781L9.61084 5.70324V5.68955L9.62606 5.67737V5.66367L9.6352 5.66519V5.64997L9.6489 5.6454L9.65651 5.618L9.66564 5.61953L9.67173 5.59974L9.68847 5.59517L9.69456 5.56929L9.71892 5.55864V5.54342L9.73414 5.54037V5.52515L9.75697 5.51602V5.50232L9.78741 5.48557V5.47035L9.81786 5.45513V5.44143L9.88788 5.39577V5.38207L9.9031 5.3775L9.91832 5.35923L9.93354 5.36228L9.99595 5.309L10.0112 5.31205L10.034 5.28769L10.0508 5.29074L10.0812 5.26029L10.0964 5.26334L10.1116 5.24507L10.1269 5.24659L10.1345 5.23441L10.1588 5.23137V5.22376L10.174 5.2268L10.1817 5.21463L10.1969 5.21767L10.2045 5.20397L10.2288 5.20093V5.19484L10.2745 5.18875L10.2821 5.17657L10.2973 5.17809L10.3126 5.16744L10.3278 5.17048V5.16287L10.343 5.16592V5.15831L10.3598 5.16135L10.3674 5.14917L10.3902 5.15222V5.14613L10.4206 5.14461V5.137L10.4435 5.14156V5.13395L10.4754 5.13243V5.12634L10.4998 5.12938V5.1233L10.5135 5.12634V5.11873L10.5378 5.1233V5.11569L10.5531 5.11873V5.11112L10.6855 5.08524L10.7007 5.08981L10.7083 5.07611L10.7388 5.07459L10.7464 5.06089L10.7783 5.05936V5.05328L10.7936 5.0548V5.04871L10.8392 5.04262V5.03653L10.8636 5.03958V5.03197H10.894V5.02435L10.9169 5.02892V5.02131L10.9321 5.02435V5.01674L10.9793 5.01827V5.01066L11.0021 5.01522V5.00913L11.0265 5.0137V5.00609L11.0493 5.00913V5.00152L11.0797 5.00913L11.0813 5L11.1117 5.00761V5L11.1498 5.00761V5L11.7662 5.14308V5.1507L11.7891 5.15526V5.16135L11.8119 5.16592L11.8134 5.17353L11.8363 5.17657V5.18418L11.8591 5.18875V5.19636L11.8758 5.1994V5.20549L11.8987 5.21006V5.21767L11.9306 5.23137V5.23746L11.9535 5.24203V5.24964L12.0007 5.27247V5.27856L12.0326 5.29226L12.0402 5.30748L12.0707 5.32118L12.0798 5.3364L12.095 5.33945L12.1026 5.35467L12.1179 5.35923L12.127 5.37446L12.1422 5.3775L12.1498 5.39272L12.1651 5.39577L12.1727 5.41251L12.1879 5.41555L12.2122 5.44752L12.229 5.45056L12.2594 5.49166L12.2746 5.49471L12.2762 5.50232L12.2914 5.51145V5.52667L12.4177 5.67128L12.4406 5.69107L12.4421 5.70477L12.4649 5.72303V5.73825L12.4801 5.74739L12.4878 5.77022L12.4954 5.77174V5.78696L12.5121 5.79762L12.5197 5.81893L12.5273 5.82197V5.83567L12.5441 5.85242V5.86764L12.5517 5.86916V5.88286L12.5593 5.88438V5.89808L12.5684 5.89961V5.91483L12.576 5.91635V5.93005L12.5837 5.93157L12.5989 5.97724L12.608 5.98028V6.00159H12.6156V6.01681L12.6247 6.01834V6.03965L12.6308 6.04117V6.05487L12.64 6.05639V6.0777L12.6476 6.07922V6.10053L12.6552 6.10205L12.6643 6.15381L12.6719 6.15533L12.7526 6.39888L12.7602 6.40192L12.7678 6.43084L12.7754 6.43237L12.7846 6.47803H12.7922V6.49325L12.7998 6.49478L12.8242 6.5922L12.8318 6.59372V6.61503L12.8394 6.61655L12.8409 6.63786L12.8485 6.63938L12.85 6.6683L12.8561 6.66983L12.8729 6.77942V7.37459L12.8576 7.47201L12.85 7.47049V7.49332L12.8424 7.49028V7.51159L12.777 7.88757L12.7709 7.88452V7.97129L12.7617 7.96976L12.7633 8.03522L12.7557 8.0337V8.07632L12.748 8.07479L12.7496 8.11741L12.7404 8.11589L12.742 8.15242L12.7343 8.1509V8.17982L12.7267 8.1783L12.6445 8.44316L12.6354 8.44012L12.6293 8.46752H12.6217V8.48883L12.6141 8.48578L12.6065 8.5147L12.5989 8.51318V8.52688L12.5897 8.52536L12.5913 8.54667L12.576 8.55123V8.56646L12.5608 8.57711L12.4771 8.76129L12.4695 8.78108L12.4619 8.76129L12.439 8.74303L12.4314 8.71259L12.4071 8.69432V8.68062L12.3903 8.66844V8.65474L12.3675 8.63648L12.3508 8.61212L12.3431 8.60908V8.59538L12.3112 8.56798L12.2716 8.50861L12.2549 8.50709L12.2472 8.48426L12.2396 8.48121V8.4599H12.2305V8.43707L12.2229 8.43555V8.41424L12.2153 8.41272V8.39141L12.2062 8.38836V8.36705L12.1985 8.36553V8.34422L12.1909 8.3427L12.1742 8.29551H12.1666V8.28181L12.159 8.27877V8.26507L12.1498 8.26354V8.24832L12.1437 8.2468V8.2331L12.1346 8.23158V8.21636L12.1194 8.19961L12.1179 8.18439L12.1026 8.17374L12.0859 8.12807L12.0615 8.1098V8.09458L12.0311 8.06718L12.022 8.04435L12.0067 8.0337V8.02L11.9824 8.00021V7.98499L11.9596 7.96672L11.958 7.95302L11.9032 7.89822L11.8956 7.87539L11.8789 7.87234V7.85865L11.8469 7.83733L11.8089 7.7871L11.7921 7.78406V7.77645L11.7525 7.74753V7.73383L11.7282 7.72165V7.71404L11.7054 7.70338L11.6962 7.68664L11.649 7.66381L11.6414 7.64706L11.6171 7.63641V7.6288L11.6018 7.62575L11.5851 7.60901L11.5699 7.60596V7.59835L11.5547 7.59531L11.5455 7.58009L11.5303 7.57704V7.56943L11.5151 7.56639L11.4983 7.54812L11.4831 7.5466L11.474 7.52986L11.404 7.49485V7.48723L11.3887 7.48571V7.4781L11.34 7.46288L11.1589 7.37764L11.0721 7.3548V7.34719L10.821 7.29392L10.3491 7.30001L10.3263 7.29544V7.30305L10.2791 7.30914V7.31523L10.2471 7.31827L10.2395 7.33045L10.2243 7.32741V7.33349L10.2075 7.33197V7.33958L10.1923 7.33654L10.1771 7.34872L10.1619 7.34415L10.1543 7.35785L10.1071 7.36394L10.0918 7.3822L10.0599 7.38373L10.0523 7.39743L10.0279 7.39895V7.40656L10.0051 7.4096V7.42483L9.96551 7.43852V7.44614L9.95029 7.44309L9.91223 7.47962L9.88027 7.48876V7.50246L9.85743 7.5055V7.5192L9.84069 7.52377L9.84221 7.53138L9.82547 7.52833L9.78741 7.56487V7.57856H9.7798L9.76458 7.60444L9.74784 7.6014L9.74023 7.62119L9.73262 7.61966L9.72653 7.63945L9.70978 7.64554L9.70217 7.67142L9.67934 7.68207L9.66412 7.72165L9.64737 7.72622V7.74144L9.63215 7.75361L9.63367 7.76731L9.62454 7.76579V7.78101L9.61693 7.77949V7.79319L9.60932 7.79167V7.80689L9.60171 7.80537V7.81907L9.5941 7.81755L9.57888 7.85865L9.57127 7.85712L9.49516 8.0824L9.48146 8.22397L9.47232 8.22245L9.46624 8.38836L9.47537 8.38988L9.4845 8.53601L9.49211 8.53754L9.50124 8.62582L9.50886 8.62734V8.65627L9.51799 8.65779V8.68671L9.5256 8.68823V8.71715L9.53321 8.71867L9.53473 8.73998L9.54234 8.74151V8.76434H9.54995V8.78717L9.55757 8.78869V8.81L9.5667 8.81153V8.83284L9.57431 8.83436V8.85567L9.58192 8.85871V8.88002L9.59105 8.88155L9.6078 8.92721L9.61389 8.92873L9.61541 8.94243L9.62302 8.94396V8.95918L9.63215 8.9607V8.9744L9.63976 8.97592V8.99114L9.64737 8.99267V9.00789L9.6626 9.02463L9.66412 9.03985L9.67934 9.04899L9.69456 9.09617L9.71892 9.11444L9.72653 9.14488L9.74327 9.15554L9.75088 9.17837L9.75849 9.17989L9.76763 9.20273L9.78285 9.20577V9.22099L9.8072 9.23926V9.25296L9.82242 9.26361V9.27883L9.84678 9.2971V9.30471L9.862 9.30776L9.87874 9.3245L9.88636 9.34733L9.91832 9.37625V9.39756L9.92593 9.39909V9.4204L9.93354 9.42192L9.93506 9.44323L9.94268 9.44627V9.46758H9.95029L9.95181 9.48281L9.95942 9.48433L9.96703 9.52999L9.97464 9.53152L9.99139 9.57718L9.999 9.5787V9.5924L10.0081 9.59545V9.60915L10.0157 9.61067V9.62437L10.0234 9.62741V9.64111L10.0386 9.65786V9.67308L10.0538 9.68373L10.0705 9.7294L10.0949 9.74919L10.104 9.77963L10.1192 9.78876L10.1269 9.81312L10.1603 9.84052V9.85422L10.1999 9.89075V9.90445L10.2547 9.95925L10.2623 9.98208L10.2791 9.98512L10.3034 10.0399L10.3202 10.1084L10.3278 10.1099V10.1252L10.3354 10.1267V10.148H10.343L10.3598 10.1952L10.3674 10.1967V10.2119L10.3765 10.2134V10.2271L10.3841 10.2287V10.2439H10.3917V10.2667L10.4085 10.2774L10.4161 10.3078L10.4328 10.317L10.448 10.3626L10.4648 10.3733V10.3885L10.48 10.3976L10.4891 10.4296L10.5044 10.4387V10.454L10.5363 10.4814V10.4951L10.5683 10.5225V10.5377L10.5911 10.5559L10.6003 10.5727L10.6155 10.5757V10.5833L10.6307 10.5925V10.6077L10.6551 10.6183L10.6642 10.6427L10.6794 10.6442L10.687 10.661L10.6946 10.6625V10.6777L10.7114 10.6868L10.719 10.7325L10.7281 10.734V10.7477L10.7357 10.7493V10.7721H10.7433L10.7601 10.8193L10.7677 10.8208V10.836H10.7753V10.8512L10.7844 10.8528V10.8665L10.792 10.868V10.8832L10.7997 10.8847V10.8984L10.8149 10.9167L10.8164 10.9319L10.8316 10.941L10.8484 10.9882L10.8727 11.0065L10.8803 11.0293L10.8879 11.0309V11.0461L10.9123 11.0643V11.0796L10.9443 11.107V11.1207L10.9762 11.1481V11.1633L11.031 11.2166L11.0386 11.2394L11.0554 11.2424V11.2577L11.0797 11.2683V11.2759L11.1193 11.3125V11.3277L11.1345 11.3368V11.352L11.1437 11.3536V11.3673L11.1513 11.3688V11.3901L11.1589 11.3931L11.1817 11.451H11.1787L11.1711 11.4921L11.165 11.4906V11.5058L11.1558 11.5043L11.1574 11.5256L11.1482 11.524L11.1498 11.5454H11.1422V11.5591L11.1345 11.556V11.5788L11.1254 11.5773L11.1193 11.6047L11.1117 11.6032V11.6245L11.1041 11.623L11.0889 11.6626L11.0813 11.661V11.6763L11.0737 11.6747V11.696L11.0584 11.7006V11.7143L11.0508 11.7128V11.7356L11.0356 11.7402V11.7539L11.028 11.7524V11.7661L11.0128 11.7782V11.7919L10.9975 11.7965L10.9823 11.8361L10.9671 11.8407V11.8559L10.9443 11.865L10.9367 11.8924L10.9123 11.9031V11.9168L10.8971 11.9213L10.8895 11.9411L10.8819 11.9396V11.9548L10.859 11.964V11.9792L10.821 12.0142L10.7327 12.1344L10.722 12.1542L10.7129 12.1527V12.174L10.7068 12.1725V12.2014L10.6992 12.1999V12.2212L10.6901 12.2197L10.6794 12.2395L10.6718 12.2379V12.2593L10.6642 12.2577V12.279L10.6566 12.2775V12.2912L10.649 12.2897V12.3125L10.6414 12.311V12.3247L10.6322 12.3232L10.614 12.3628L10.6063 12.3612L10.5972 12.3886L10.5911 12.3871V12.4023L10.5835 12.4008V12.4221L10.5744 12.4206L10.5592 12.4267H10.5637L10.5652 12.4419L10.5576 12.4389L10.5409 12.48L10.5272 12.4845L10.512 12.5241L10.4952 12.5302L10.4815 12.5683L10.4648 12.5728V12.588L10.4496 12.5911V12.6063L10.4343 12.6109V12.6246H10.4267L10.4191 12.6444L10.4039 12.6474V12.6626L10.3811 12.6718V12.687L10.3658 12.6916V12.7053L10.3506 12.7098L10.3628 12.719L10.3476 12.7235V12.7372L10.3171 12.789V12.8011L10.2623 12.8346V12.8499L10.2319 12.8651L10.0705 13.0721L10.0629 13.0706L10.0553 13.098L10.0492 13.0964V13.1101L10.0401 13.1086V13.1315L10.0325 13.1284L10.0173 13.1695L10.0097 13.168V13.1817L10.002 13.1802L10.0036 13.1954L9.99443 13.1939L9.99595 13.2076H9.98834V13.2213L9.97312 13.2319V13.2471L9.9579 13.2517V13.273L9.94876 13.2715L9.94268 13.2913L9.92593 13.2959L9.91832 13.3233L9.9031 13.3278V13.3415L9.89549 13.34V13.3552L9.88027 13.3583V13.3735L9.85743 13.3826L9.84982 13.41L9.82699 13.4207V13.4344L9.80264 13.445V13.4587L9.78741 13.4633V13.4785L9.75697 13.4937V13.5074L9.71892 13.5303V13.544L9.60171 13.6871L9.59258 13.6855L9.5941 13.7145L9.58649 13.7129V13.7266L9.57888 13.7251L9.55148 13.7845L9.54387 13.783L9.53625 13.818L9.52864 13.8164V13.8301L9.52103 13.8286V13.8499H9.51342L9.4982 13.8895L9.48907 13.888L9.49059 13.9017H9.48298V13.9154L9.47537 13.9139V13.9352L9.46015 13.9397V13.961L9.44492 13.9656V13.9793L9.43731 13.9778V13.993L9.4297 13.99V14.0052L9.42057 14.0037L9.42209 14.0189L9.40687 14.0295V14.0448L9.39165 14.0478L9.38404 14.0752L9.36729 14.0798L9.36121 14.1072L9.33685 14.1178L9.33076 14.1452L9.30641 14.1544L9.2988 14.1757L9.28357 14.1787L9.27596 14.2061L9.25313 14.2168V14.2305L9.21508 14.2518V14.267L9.1755 14.2883V14.302L9.04611 14.4512L9.0385 14.4695H9.03089V14.4984L9.02328 14.4969L9.01567 14.5227H9.00806L9.00045 14.5638L8.99284 14.5623L8.98523 14.5973L8.97762 14.5958L8.97001 14.6217L8.96239 14.6201V14.6354L8.95478 14.6338V14.6552L8.94717 14.6536L8.93195 14.6947L8.92434 14.6932V14.7069L8.91673 14.7054L8.90151 14.745L8.88629 14.7495V14.7648L8.87106 14.7754V14.7906L8.86345 14.7891V14.8028L8.85584 14.8013V14.8165L8.84062 14.8211L8.83301 14.847L8.81779 14.8515V14.8652L8.80257 14.8713V14.885L8.78734 14.8896V14.9033L8.77212 14.9078V14.9215L8.7569 14.9261V14.9398L8.73407 14.9505V14.9657L8.71885 14.9702V14.9839L8.68688 14.9992V15.0144L8.64883 15.0357V15.0494L8.61838 15.0646V15.0722L8.60316 15.0768L8.46921 15.2458L8.4616 15.2579L8.44638 15.299L8.43877 15.2975L8.43268 15.3249L8.42354 15.3234V15.3447L8.41593 15.3432V15.3569H8.40832V15.3782L8.40071 15.3767L8.37331 15.4147L8.3657 15.4132V15.4269L8.35809 15.4254V15.4467L8.34287 15.4513V15.465L8.32765 15.4771V15.4908H8.32004V15.5045L8.31243 15.503V15.5182L8.2972 15.5289V15.5426L8.28198 15.5472L8.27437 15.5746L8.25915 15.5791V15.5928L8.24393 15.5974V15.6111L8.22871 15.6156L8.2211 15.6446L8.19826 15.6537L8.19065 15.6811L8.16782 15.6902L8.12824 15.7344V15.7481L8.11302 15.745L8.0978 15.7709L8.09019 15.7694V15.7846L8.07497 15.7877V15.7953L8.05974 15.7998V15.8151L7.9745 15.8714L7.97603 15.8851L7.95928 15.8881L7.92123 15.9247L7.90601 15.9216L7.89687 15.9338L7.6518 16.1606L7.64419 16.1591V16.1743L7.63658 16.1728V16.1865L7.62136 16.1986V16.2123L7.60614 16.2169L7.59853 16.2443L7.5833 16.2489L7.57569 16.2763L7.55134 16.2854L7.54525 16.3128L7.52242 16.3235L7.51481 16.3509L7.49045 16.36V16.3752L7.46762 16.3859L7.46914 16.3996L7.43717 16.4148L7.42956 16.4361L7.42195 16.4331V16.4483L7.40673 16.4452L7.25299 16.5883L7.23777 16.5868L7.23016 16.599L7.16775 16.6294V16.6446L7.16014 16.6431L7.1297 16.6583V16.666L7.11447 16.6629V16.6781L7.08251 16.6857V16.6933L7.06729 16.6903L7.05968 16.7025H7.05206L7.04445 16.7147L6.89071 16.8654L6.87549 16.8699L6.86788 16.8973L6.85266 16.9004V16.9156L6.83744 16.9202V16.9339L6.82069 16.9384V16.9521L6.80699 16.9567V16.9704L6.79025 16.9765V16.9902L6.76742 16.9993V17.0145L6.75372 17.0191V17.0328L6.73697 17.0374V17.045L6.72175 17.0495V17.0632L6.69131 17.0785V17.0937L6.63803 17.1256V17.1409L6.58324 17.1728L6.57562 17.1926L6.5604 17.1911L6.55279 17.2109L6.52996 17.2139L6.46146 17.2581L6.26053 17.4575L6.23009 17.494V17.5092L6.21487 17.5123L6.20726 17.5397L6.19051 17.5458L6.19204 17.5595L6.17529 17.564L6.16159 17.5823V17.596L6.14637 17.6006L6.13267 17.6021L6.11745 17.6051V17.6204L6.10223 17.6249V17.6386L6.07939 17.6493L6.04134 17.6919V17.7071L6.02612 17.7026L6.01851 17.7239L5.99568 17.733V17.7482L5.9561 17.7695L5.80997 17.8776V17.8928L5.79475 17.9035L5.77953 17.902L5.7643 17.9202L5.68667 17.9552V17.9689L5.66384 17.9735L5.61665 17.9918L5.60295 18.0116L5.58621 18.0085L5.56338 18.0192L5.55577 18.0313L5.55272 18.042L5.54511 18.0557L5.49031 18.0679V18.0816L5.45987 18.0831V18.0892L5.44465 18.0861L5.43704 18.0998L5.42029 18.0968V18.1044L5.40507 18.0998L5.38985 18.1059L4.9195 18.4119L4.90428 18.4088L4.87992 18.4332L4.86622 18.4302V18.4378L4.84187 18.4484L4.83426 18.4606L4.81903 18.4591L4.81142 18.4713L4.7962 18.4682L4.77946 18.4865L4.76424 18.4834L4.74901 18.5032H4.71705L4.70335 18.5215L4.68813 18.52L4.68052 18.5321L4.64855 18.5337L4.64094 18.5458L4.6105 18.5489L4.60288 18.5611L4.58614 18.558L4.57244 18.5702L4.5557 18.5656V18.5732L4.54048 18.5717L4.53286 18.5839L4.5009 18.5854L4.50242 18.593L4.48568 18.59V18.5961L4.44001 18.6022V18.6098L4.41566 18.6052V18.6113L4.40196 18.6098V18.6174L4.35477 18.6219V18.6296L4.30758 18.628V18.6356L4.29236 18.6326V18.6402L4.22234 18.6417V18.6478L4.20712 18.6448V18.6524L4.17668 18.6463V18.6539L4.15232 18.6493V18.657L4.12949 18.6524V18.66L4.10513 18.6554V18.663L4.07469 18.657L3.94378 18.6676L3.86615 18.6615V18.6676L3.39884 18.6022V18.5945L3.23445 18.558L2.9224 18.4423V18.4362L2.82042 18.3951V18.3891L2.8052 18.386V18.3784L2.78236 18.3738V18.3662L2.73518 18.351V18.3434L2.71843 18.3403V18.3343L2.6956 18.3297V18.3221L2.66363 18.3099V18.3023L2.64841 18.2992V18.2916L2.62558 18.2886V18.281L2.59361 18.2673V18.2597L2.57839 18.2581L2.57687 18.2505L2.55404 18.246L2.54643 18.2307L2.5312 18.2277V18.2201L2.51598 18.217V18.2094L2.49924 18.2064V18.1988L2.48402 18.1973L2.46727 18.1805L2.45205 18.1775L2.44444 18.1607L2.39725 18.1379L2.38964 18.1227L2.35768 18.1105L2.34245 18.0846L2.32723 18.0816L2.3181 18.0664L2.30288 18.0633V18.0572L2.28004 18.045L2.27243 18.0298L2.25569 18.0253L2.24047 18.0009L2.22525 17.9994L2.21764 17.9826L2.20089 17.9796L2.18719 17.9552L2.17045 17.9537L2.13848 17.9111L2.12326 17.908L2.08368 17.8578L2.06846 17.8548L1.96495 17.736L1.90255 17.6736V17.6599L1.84775 17.6067V17.5914L1.81578 17.5656V17.5503L1.78382 17.5229V17.5092L1.76859 17.4986V17.4849L1.74424 17.4666V17.4514L1.72902 17.4407L1.72141 17.4179L1.7138 17.4164L1.71227 17.4027L1.69705 17.392V17.3783L1.68183 17.3677V17.354L1.66661 17.3433L1.64986 17.2977L1.63312 17.287L1.6179 17.2413L1.60115 17.2307L1.59354 17.2018L1.58593 17.2002V17.185L1.5768 17.1835V17.1698L1.57071 17.1683L1.56919 17.153H1.56158V17.1378L1.55397 17.1363V17.115L1.53875 17.1059L1.53722 17.0845L1.52961 17.0815L1.522 17.0526L1.51439 17.0511V17.0298L1.50526 17.0282L1.49765 16.9978L1.49004 16.9963L1.4809 16.9521L1.47481 16.9506L1.47329 16.9354L1.46568 16.9339V16.9065L1.45807 16.9034V16.8897L1.45046 16.8882V16.8593L1.44285 16.8577L1.44133 16.8364L1.43372 16.8349V16.8136L1.4261 16.8121L1.41697 16.7603L1.40936 16.7588L1.40175 16.6933L1.39414 16.6918V16.6629L1.38653 16.6614V16.6325L1.3774 16.6309L1.37587 16.5883L1.36826 16.5868L1.36065 16.4848L1.35152 16.4833L1.33325 16.2078L1.34086 16.2093L1.35456 15.9475H1.36065V15.9049L1.36826 15.9064V15.8638L1.37587 15.8653L1.38348 15.8014L1.39109 15.8029L1.38957 15.7679L1.39871 15.7694L1.39718 15.7405L1.40632 15.742L1.41241 15.6918L1.42002 15.6948V15.6735H1.42763V15.6522L1.43524 15.6537V15.6248L1.44285 15.6263V15.6126L1.45046 15.6141L1.46568 15.5517L1.47329 15.5532L1.4809 15.5258L1.48851 15.5274L1.49612 15.4863L1.50374 15.4878L1.51896 15.4467L1.52657 15.4497V15.4345L1.53418 15.436L1.54179 15.401L1.55701 15.3965L1.56462 15.363L1.57984 15.3584V15.3447L1.59507 15.3325V15.3188L1.60268 15.3203V15.3051L1.61029 15.3066V15.2914L1.62551 15.2884L1.64073 15.2473L1.64834 15.2488L1.65595 15.229L1.67117 15.2245V15.2108L1.6864 15.2062V15.1925L1.71075 15.1818L1.71684 15.1544L1.74119 15.1453V15.1301L1.76403 15.1209L1.76251 15.1057L1.80208 15.0844V15.0707L1.84014 15.0479V15.0342L1.87058 15.019V15.0037L1.91777 14.9839V14.9702L1.97104 14.9368L1.97865 14.9231L1.9954 14.9261L2.01062 14.9154V14.9002L2.08673 14.8652V14.85L2.14914 14.8272L2.15675 14.8135L2.17197 14.8165L2.18719 14.7982L2.20241 14.8013L2.21916 14.7815L2.23438 14.7845L2.24199 14.7724L2.26482 14.7693V14.7617L2.28004 14.7648L2.28766 14.7511L2.30288 14.7556L2.31049 14.7419L2.32571 14.745L2.52664 14.6095L2.64232 14.4877L2.64993 14.4892L2.70473 14.4344L2.71234 14.436V14.4223L2.74126 14.3994L2.76562 14.3964L2.82042 14.3492L3.04265 14.1894V14.1757L3.05788 14.1574L3.0731 14.1468V14.1315H3.08071V14.1194L3.09593 14.1148V14.0996L3.11115 14.0889V14.0737L3.12637 14.0691V14.0554L3.1416 14.0509V14.0372L3.15682 14.0174L3.17356 14.0128L3.21162 13.9702L3.25728 13.9215V13.9078L3.2725 13.9108L3.3136 13.8895L3.32121 13.891V13.8758L3.35166 13.8606V13.853L3.36688 13.8484V13.8347L3.41254 13.8073L3.50387 13.7099L3.5191 13.7129L3.56628 13.6703L3.58151 13.6734L3.59673 13.6323L3.61195 13.6353L3.64239 13.6049L3.65761 13.6079L3.66522 13.5942L3.68045 13.5988L3.69719 13.579L3.76264 13.5333L3.77634 13.5242L3.78548 13.5166L3.84789 13.4511L3.8555 13.4237L3.86311 13.4252L3.87072 13.4055L3.88594 13.4009V13.3857L3.90116 13.3826V13.3674L3.93161 13.3522L3.93922 13.3248L3.95444 13.3202L3.96357 13.3004L4.00163 13.2791V13.2639L4.03968 13.2441V13.2289L4.11579 13.1786L4.1234 13.1589L4.4187 12.8559L4.43392 12.8499L4.44914 12.8103L4.46437 12.8057L4.47959 12.7661L4.4872 12.7677L4.49481 12.7463L4.51003 12.7433L4.51764 12.7159L4.54048 12.7053L4.54809 12.6794L4.57244 12.6687V12.6535L4.59527 12.6444L4.59375 12.6291L4.6105 12.6261V12.6109L4.65007 12.5896L4.64855 12.5743L4.68813 12.553V12.5409L5.01996 12.0675L5.03062 12.0522L5.04584 12.0477L5.05497 12.0203L5.07019 12.0157L5.0778 11.9883L5.09303 11.9837V11.97L5.10825 11.9655L5.10672 11.9518L5.12347 11.9472V11.932L5.13869 11.9289V11.9137L5.16152 11.9046V11.8894L5.18436 11.8802V11.865L5.22393 11.8437L5.22241 11.83L5.26199 11.8087V11.7935L5.29243 11.7782V11.763L5.30765 11.7508L5.32287 11.7554" fill="#00B1A9"/>
<path d="M11.1909 11.4205L11.2122 11.3368L11.229 11.3398L11.2518 11.2424L11.267 11.2394L11.2746 11.2181L11.2822 11.2196L11.2899 11.1998L11.3051 11.2028L11.337 11.1496L11.3523 11.1541L11.3827 11.0932L11.3994 11.0963L11.4299 11.0293L11.4451 11.0339L11.4756 10.9806V10.9593L11.4923 10.9547L11.4908 10.9334L11.5075 10.9289L11.5151 10.8938L11.5227 10.8954L11.5212 10.8817L11.5364 10.8771L11.5456 10.8345L11.5608 10.8375L11.5684 10.7888L11.5836 10.7827L11.5912 10.7279L11.6065 10.7218L11.6141 10.667L11.6293 10.6625V10.6259L11.6369 10.6275V10.5985L11.6521 10.594L11.6597 10.5087L11.675 10.5042L11.6734 10.4463L11.6811 10.4478V10.425L11.6902 10.4265L11.6978 10.393L11.7054 10.3946L11.7206 10.39L11.7282 10.355L11.7511 10.352V10.3306L11.7663 10.3337L11.7739 10.2987L11.7983 10.2956L11.7967 10.2743L11.8135 10.2774L11.8287 10.2287L11.8439 10.2317L11.8515 10.1891L11.8668 10.1921L11.9216 10.0719L11.9368 10.0749L11.9444 10.0338L11.9596 10.0353L11.9672 9.98663L11.9824 9.98967L11.9901 9.92574L12.0053 9.92879L12.0281 9.83137L12.0357 9.83289L12.0433 9.76287L12.0586 9.7583L12.0662 9.65784L12.0814 9.65327V9.62435L12.0875 9.62587L12.1118 9.58021L12.127 9.58173L12.1499 9.56499L12.1879 9.48583L12.2047 9.48888L12.2351 9.4219L12.2503 9.42495L12.4634 8.82064L12.4726 8.82216L12.4771 8.80542H12.4848V8.82064L12.4924 8.82216L12.4939 8.83586L12.5015 8.83739V8.85261L12.5091 8.85413V8.86783L12.5167 8.87087V8.88457L12.5259 8.8861V8.89979L12.5335 8.90132V8.91654L12.5411 8.91806L12.5563 8.96373L12.5639 8.96525L12.707 9.21336L12.7085 9.22858L12.739 9.25446V9.26968L12.7618 9.28795V9.30165L12.7862 9.32144V9.33514L12.8029 9.34579V9.35949L12.8181 9.37015L12.8272 9.39298L12.8349 9.3945V9.4082L12.8501 9.42495V9.44017L12.8577 9.44169V9.45539L12.8744 9.46604L12.882 9.49649L12.8897 9.49801L12.9064 9.54368L12.914 9.5452V9.56651L12.9216 9.56803L12.9292 9.59847L12.9384 9.6L13.0723 9.78875V9.80397L13.1119 9.83898V9.8542L13.1439 9.8816V9.8953L13.1667 9.91356V9.92726L13.1819 9.93944L13.1834 9.95314L13.2063 9.97141V9.98663L13.2215 9.99576L13.2306 10.0262L13.2458 10.0369L13.2626 10.0825L13.2778 10.0917L13.2854 10.1221L13.2946 10.1236L13.3006 10.1541L13.3098 10.1556V10.1769L13.3189 10.1784L13.3265 10.2089L13.3326 10.2104L13.3417 10.2469L13.3494 10.2484L13.4848 10.4387V10.4524L13.5229 10.4889L13.5244 10.5026L13.5472 10.5209V10.5361L13.5701 10.5544V10.5696L13.5868 10.5788L13.5944 10.6016L13.602 10.6031V10.6183L13.6188 10.6275L13.6264 10.6579L13.6416 10.6686L13.6584 10.7142L13.666 10.7157V10.7294L13.6736 10.731V10.7447L13.6827 10.7462V10.7614L13.6903 10.7629L13.7055 10.8086L13.7132 10.8101V10.8314L13.7208 10.833V10.8482L13.7284 10.8497L13.7299 10.871L13.7375 10.8725L13.739 10.8862L13.7451 10.8878V10.9091L13.7543 10.9106V10.9319L13.7619 10.9349V10.9547L13.7695 10.9563L13.8167 11.0293L13.8562 11.0872L13.8639 11.0887L13.873 11.1115L13.8958 11.1313V11.145L13.9126 11.1557V11.1694L13.9354 11.1876V11.2028L13.9506 11.212L13.9597 11.2348L13.9674 11.2363L13.9765 11.2668L13.9902 11.2774V11.2911L14.0069 11.3079V11.3231L14.0145 11.3246V11.3383L14.0222 11.3398V11.3535L14.0389 11.3642V11.387L14.048 11.3886V11.4023L14.0541 11.4038L14.0633 11.4342H14.0709V11.457L14.0785 11.4586V11.4723L14.0876 11.4738L14.0952 11.5103L14.1028 11.5118V11.5347L14.1104 11.5362L14.2063 11.7036L14.2368 11.731L14.2383 11.7447L14.2611 11.7645V11.7782L14.2779 11.7874V11.8026L14.3327 11.8924L14.3479 11.9015V11.9167L14.3631 11.9335L14.3646 11.9472L14.3723 11.9487V11.9639L14.3799 11.9655V11.9792L14.3875 11.9807V11.9944L14.3966 11.9974L14.4118 12.0416L14.4194 12.0446L14.5549 12.2334L14.5701 12.2577L14.5778 12.2592V12.2745L14.6097 12.3019V12.3156L14.6325 12.3338V12.349L14.6569 12.3673V12.381L14.6721 12.3917V12.4069L14.6889 12.416L14.6965 12.4389L14.7041 12.4404L14.7132 12.4708L14.7284 12.4815L14.7361 12.5104L14.7756 12.5895H14.7878L14.7848 12.5972L14.7619 12.6078V12.6154L14.7467 12.6124V12.62L14.7315 12.6154L14.7163 12.6352L14.7071 12.6337V12.6474H14.6995L14.6919 12.6596L14.6752 12.6565L14.6676 12.6778L14.6447 12.6946L14.6371 12.6931V12.7007L14.6219 12.6976V12.7052L14.5975 12.7144V12.7296L14.5823 12.7342V12.7479L14.5504 12.7646L14.5123 12.7935V12.8072H14.5032V12.8209L14.4803 12.8316V12.8392L14.4651 12.8361L14.4575 12.8498H14.4255L14.3479 12.8727L14.3235 12.8894V12.897L14.3083 12.894V12.9016L14.2916 12.8985L14.2764 12.9168L14.2596 12.9138L14.2535 12.9275L14.2368 12.9244L14.1896 12.967L14.1744 12.964L14.1515 12.9884L14.1272 12.9914L14.1196 13.0112L14.0967 13.0142V13.0295L14.0724 13.0477L14.0648 13.0447L14.0663 13.0538L14.0404 13.0553L14.0343 13.069L14.01 13.0645L14.0024 13.0766L13.9871 13.0736V13.0812L13.9704 13.0782V13.0858L13.94 13.0797V13.0873L13.8912 13.0934V13.101L13.8684 13.0964V13.104L13.8532 13.101L13.8456 13.1132L13.8136 13.1147L13.7314 13.168L13.6218 13.2213L13.4453 13.308L13.4209 13.3263L13.3265 13.41L13.3052 13.4283L13.2337 13.4359L13.2169 13.4557L13.1469 13.4633L13.1393 13.477L13.1073 13.4785L13.0921 13.4983L13.0754 13.4952L13.0678 13.5074L13.0373 13.5089L13.0221 13.5272L12.9901 13.544L12.9749 13.5409V13.5561L12.9582 13.5516L12.9429 13.5714L12.9262 13.5683L12.9277 13.5759L12.911 13.5729V13.5805L12.8957 13.5851V13.5988L12.8805 13.6033V13.6109L12.8486 13.6125L12.8409 13.6246L12.6796 13.6383L12.5883 13.5242L12.5639 13.5059L12.5563 13.4831L12.5243 13.4541V13.4404L12.5 13.4222V13.407L12.4771 13.3887V13.3735L12.4604 13.3643V13.3506L12.4452 13.34L12.4376 13.3095L12.4224 13.3004L12.4132 13.2684H12.4041L12.398 13.238L12.3904 13.2365L12.3889 13.2213L12.3813 13.2197L12.3691 13.203L12.3615 13.2015L12.2899 13.1025L12.2321 13.0355V13.0279L12.2001 13.0005V12.9868L12.1225 12.9077V12.8925L12.1027 12.8681V12.8529L12.0859 12.8438V12.8285L12.0707 12.8194V12.8042L12.054 12.795V12.7798L12.0388 12.7707V12.7555L12.0235 12.7463V12.7311L12.0144 12.7296L12.0068 12.7007L11.9916 12.69L11.984 12.6596H11.9748L11.9459 12.6093L11.9383 12.6078V12.5865H11.9307L11.9231 12.5545H11.9155L11.7648 12.3475V12.3323L11.7252 12.2973V12.2821L11.7024 12.2638V12.2486L11.678 12.2303V12.2166L11.6628 12.206V12.1923L11.646 12.1816L11.6384 12.1588L11.6308 12.1573L11.6141 12.1116L11.5989 12.1025L11.4405 11.8224L11.4329 11.798L11.369 11.7371V11.7219L11.3386 11.6945V11.6808L11.3066 11.6534L11.3051 11.6382L11.2899 11.6291L11.2822 11.6062L11.2746 11.6047V11.5895L11.2579 11.5803V11.5666L11.2427 11.556V11.5408L11.2274 11.5316L11.2259 11.5164L11.1879 11.4601V11.4555L11.1909 11.457V11.4205Z" fill="#B7C61F"/>
<path d="M12.4771 8.78271V8.79185L12.4695 8.78271H12.4771Z" fill="#81BB2F"/>
<path d="M12.4786 8.79479L12.4771 8.80545V8.79175L12.4786 8.79479Z" fill="#81BB2F"/>
<path d="M11.1879 11.4555L11.1833 11.454L11.1818 11.4509L11.1879 11.4524V11.4555Z" fill="#81BB2F"/>
<path d="M11.1512 11.3901V11.3688L11.1436 11.3673V11.3536L11.1345 11.3521V11.3368L11.1193 11.3277V11.3125L11.0797 11.276V11.2683L11.0553 11.2577V11.2425L11.0386 11.2394L11.031 11.2166L10.9762 11.1633V11.1481L10.9442 11.1207V11.107L10.9123 11.0796V11.0644L10.8879 11.0461V11.0309L10.8803 11.0294L10.8727 11.0065L10.8483 10.9883L10.8316 10.9411L10.8164 10.9319L10.8148 10.9167L10.7996 10.8985V10.8848L10.792 10.8832V10.868L10.7844 10.8665V10.8528L10.7753 10.8513V10.836H10.7676V10.8208L10.76 10.8193L10.7433 10.7721H10.7357V10.7493L10.7281 10.7478V10.7341L10.7189 10.7325L10.6307 10.6077V10.5925L10.6154 10.5834V10.5758L10.6002 10.5727L10.5911 10.556L10.5682 10.5377V10.5225L10.5363 10.4951V10.4814L10.5043 10.454V10.4388L10.4891 10.4296L10.48 10.3977L10.4647 10.3885V10.3733L10.448 10.3627L10.4328 10.317L10.416 10.3079L10.4084 10.2774L10.3917 10.2668V10.2439H10.3841V10.2287L10.3764 10.2272V10.2135L10.3673 10.212V10.1967L10.3597 10.1952L10.343 10.148H10.3353V10.1267L10.3277 10.1252V10.11L10.3201 10.1084L10.1999 9.90448V9.89078L10.1603 9.85424V9.84054L10.1268 9.81315L10.1192 9.78879L10.104 9.77966L10.0948 9.74921L10.0705 9.72943L10.0537 9.68376L10.0385 9.67311V9.65788L10.0233 9.64114V9.62744L10.0157 9.6244V9.6107L10.0081 9.60917V9.59547L9.99895 9.59243V9.57873L9.99134 9.57721L9.97459 9.53154L9.96698 9.53002L9.95937 9.48436L9.95176 9.48283L9.94263 9.46761L9.93502 9.44326L9.88631 9.34736L9.86195 9.30778L9.84673 9.30474V9.29713L9.82238 9.27886V9.26364L9.80715 9.25299V9.23929L9.7828 9.22102V9.2058L9.76758 9.20275L9.75844 9.17992L9.75083 9.1784L9.74322 9.15557L9.72648 9.14491L9.71887 9.11447L9.69451 9.0962L9.67929 9.04901L9.66407 9.03988L9.66255 9.02466L9.64733 9.00791V8.99269L9.63971 8.99117V8.97595L9.6321 8.97443V8.96073L9.62297 8.95921V8.94398L9.61536 8.94246L9.61384 8.92876L9.60775 8.92724L9.591 8.88157L9.58187 8.88005V8.85874L9.57426 8.8557V8.83439L9.56665 8.83286V8.81155L9.55752 8.81003V8.78872L9.54991 8.7872V8.76437H9.5423V8.74153L9.53468 8.74001L9.53316 8.7187L9.52555 8.71718V8.68826L9.51794 8.68674V8.65781L9.50881 8.65629V8.62737L9.5012 8.62585L9.49206 8.53756L9.48445 8.53604L9.47532 8.38991L9.46619 8.38839L9.47228 8.22247L9.48141 8.22399L9.49511 8.08243L9.57122 7.85715L9.57883 7.85867L9.59405 7.81757L9.60166 7.8191V7.8054L9.60927 7.80692V7.7917L9.61688 7.79322V7.77952L9.62449 7.78104V7.76582L9.63363 7.76734L9.6321 7.75364L9.64733 7.74146V7.72624L9.66407 7.72168L9.67929 7.6821L9.70212 7.67144L9.70973 7.64557L9.72648 7.63948L9.73257 7.61969L9.74018 7.62121L9.74779 7.60142L9.76453 7.60447L9.77975 7.57859H9.78737V7.56489L9.82542 7.52836L9.84216 7.5314L9.84064 7.52379L9.85739 7.51923V7.50553L9.88022 7.50248V7.48878L9.91218 7.47965L9.95024 7.44312L9.96546 7.44616V7.43855L10.005 7.42485V7.40963L10.0279 7.40659V7.39898L10.0522 7.39745L10.0598 7.38375L10.0918 7.38223L10.107 7.36397L10.1542 7.35788L10.1618 7.34418L10.177 7.34874L10.1923 7.33657L10.2075 7.33961V7.332L10.2242 7.33352V7.32743L10.2395 7.33048L10.2471 7.3183L10.279 7.31526V7.30917L10.3262 7.30308V7.29547L10.349 7.30003L10.8209 7.29395L11.0721 7.34722V7.35483L11.1588 7.37766L11.34 7.46291L11.3887 7.47813V7.48574L11.4039 7.48726V7.49487L11.4739 7.52988L11.4831 7.54663L11.4983 7.54815L11.515 7.56641L11.5303 7.56946V7.57707L11.5455 7.58011L11.5546 7.59534L11.5698 7.59838V7.60599L11.5851 7.60904L11.6018 7.62578L11.617 7.62882V7.63643L11.6414 7.64709L11.649 7.66383L11.6962 7.68667L11.7053 7.70341L11.7281 7.71407V7.72168L11.7525 7.73385V7.74755L11.7921 7.77647V7.78409L11.8088 7.78713L11.8469 7.83736L11.8788 7.85867V7.87237L11.8956 7.87542L11.9032 7.89825L11.958 7.95305L11.9595 7.96675L11.9823 7.98501V8.00023L12.0067 8.02002V8.03372L12.0219 8.04438L12.0311 8.06721L12.0615 8.09461V8.10983L12.0859 8.1281L12.1026 8.17376L12.1178 8.18442L12.1193 8.19964L12.1346 8.21638V8.23161L12.1437 8.23313V8.24683L12.1498 8.24835V8.26357L12.1589 8.26509V8.27879L12.1665 8.28184V8.29554H12.1741L12.1985 8.34425L12.3431 8.59541V8.6091L12.3507 8.61215L12.3675 8.6365L12.3903 8.65477V8.66847L12.407 8.68065V8.69435L12.4314 8.71261L12.439 8.74306L12.4618 8.76132L12.4694 8.78111V8.78263L12.477 8.79177V8.80547L12.4725 8.82221L12.4634 8.82069L12.2502 9.42499L12.235 9.42195L12.2046 9.48892L12.1878 9.48588L12.1498 9.56503L12.0585 9.75835L12.0432 9.76291L12.0356 9.83293L12.028 9.83141L12.0052 9.92883L11.99 9.92579L11.9823 9.98972L11.9671 9.98667L11.9595 10.0354L11.9443 10.0339L11.9367 10.075L11.9215 10.0719L11.8667 10.1922L11.8514 10.1891L11.8438 10.2317L11.8286 10.2287L11.8134 10.2774L11.7982 10.2957L11.7662 10.3337L11.751 10.352L11.6749 10.5042L11.652 10.594L11.6368 10.5986V10.6275L11.6292 10.626V10.6625L11.614 10.6671L11.6064 10.7219L11.5911 10.728L11.5835 10.7828L11.5683 10.7889L11.5607 10.8376L11.5455 10.8345L11.5363 10.8771L11.5211 10.8817L11.5226 10.8954L11.515 10.8939L11.5074 10.9289L11.4907 10.9335L11.4922 10.9548L11.4755 10.9593V10.9807L11.445 11.0339L11.4298 11.0294L11.3993 11.0963L11.3826 11.0933L11.3522 11.1542L11.2289 11.3399L11.1908 11.4206V11.4571L11.1878 11.4556V11.4525L11.1817 11.451L11.1588 11.3932L11.1512 11.3901Z" fill="#009096"/>
<path d="M17.4881 14.5456L17.4942 14.5533L17.4805 14.5502L17.476 14.5411L17.4881 14.5396V14.5456Z" fill="#81BB2F"/>
<path d="M18.992 12.2487L18.9996 12.2517V12.2685L18.9707 12.2319L18.992 12.2487Z" fill="#81BB2F"/>
<path d="M17.4485 14.5075L17.4394 14.477L17.4166 14.4588L17.4074 14.4207L17.3998 14.4192L17.3678 14.369L17.2628 14.299V14.2837L17.24 14.2731L17.2324 14.2563L17.2156 14.2548L17.1913 14.2213L17.1761 14.2183L17.1365 14.1741L17.1197 14.1498L17.1045 14.1467L17.0802 14.1056L17.0649 14.1026L17.0238 14.0448L17.0162 14.0432V14.028L16.9675 13.9823V13.9686L16.9523 13.958V13.9443L16.9355 13.9336V13.9184L16.9051 13.9047L16.8473 13.7784L16.8305 13.7753L16.7666 13.6262L16.7498 13.6155V13.6003L16.7422 13.5988L16.7346 13.5531L16.727 13.5516L16.7255 13.5303H16.7179V13.5074L16.7103 13.5059V13.4846L16.7027 13.4831L16.7011 13.4541L16.6935 13.4526L16.6844 13.407L16.6768 13.4054V13.3917L16.6692 13.3887V13.3598H16.6616L16.66 13.3156L16.6524 13.3141V13.2776L16.6448 13.2761L16.6433 13.2167L16.6357 13.2152L16.52 12.8164L16.5124 12.7418H16.5032V12.7265L16.4956 12.725L16.4941 12.6748L16.4789 12.6626V12.5835L16.4622 12.5728L16.4591 12.3475L16.4743 12.343V12.2638L16.4911 12.2653L16.4972 12.1953H16.5048V12.1664L16.5124 12.1679V12.1314L16.5276 12.1268V12.0979L16.5443 12.0948L16.552 12.0446L16.5672 12.0477L16.59 11.9715L16.6052 11.9746V11.9533L16.6205 11.9563L16.6829 11.8574L16.6996 11.8604L16.7224 11.8148L16.7377 11.8178V11.8026L16.7529 11.8056L16.7909 11.7539L16.8077 11.7569V11.7432L16.8305 11.7478L16.8549 11.7295L16.8533 11.7158L16.8701 11.7189V11.7036L16.8868 11.7067L16.9005 11.6884L16.9173 11.6899L16.9249 11.6778L16.9477 11.6747V11.6595L16.9888 11.6382L17.0588 11.6291V11.6154L17.138 11.6077L17.1365 11.5925L17.208 11.5849L17.2324 11.5895V11.5819L17.2491 11.5849V11.5773L17.2796 11.5834L17.2872 11.5697L17.3739 11.5788L17.3815 11.5667L17.4531 11.5788L17.4607 11.5667L17.587 11.5895L17.6038 11.5849L17.8169 11.6321V11.6473L17.9904 11.7006V11.7158L18.03 11.7219L18.0315 11.7371L18.1594 11.7767L18.4684 11.9441L18.5217 11.9731V11.9807L18.5536 11.9868L18.5612 12.002L18.5932 12.0081V12.0157L18.6176 12.0203V12.0279L18.6419 12.0324V12.04L18.6739 12.0461V12.0522L18.785 12.1025V12.1162L18.9433 12.2044V12.2181L18.9707 12.2318L18.9996 12.2684V12.2729L19.0148 12.276L19.024 12.314L19.0316 12.3156V12.3445L19.0392 12.346V12.3597L19.0483 12.3612V12.3841L19.0559 12.3856V12.4145L19.0651 12.416V12.4297L19.0727 12.4312V12.4678L19.0879 12.4784L19.0894 12.5302L19.1046 12.5408L19.1062 12.6048L19.1214 12.6154L19.1229 12.7387L19.1397 12.8377L19.1336 12.8346V12.8651L19.1244 12.8635L19.126 12.9868L19.1107 12.9914V13.0569L19.0955 13.0614V13.1117L19.0803 13.1162V13.1528L19.0727 13.1512V13.1665L19.0651 13.1649V13.1939L19.0575 13.1923V13.2076L19.0498 13.2045L19.0422 13.2547L19.0346 13.2532L19.027 13.2882L19.0118 13.2852V13.3141L18.995 13.3111L18.9966 13.34L18.9798 13.3385L18.9661 13.3856L18.9494 13.3826L18.9342 13.4237L18.9113 13.4344V13.4557L18.8809 13.4937L18.8641 13.4907V13.5059L18.8489 13.5029V13.5166L18.8337 13.5135L18.7789 13.5835L18.7622 13.5805V13.5957L18.6921 13.6262V13.6399L18.645 13.6536V13.6688L18.5125 13.7677L18.4958 13.7647V13.786L18.4806 13.7905V13.8042L18.4562 13.8149V13.8301L18.4334 13.8408V13.8545L18.4029 13.8712L18.3877 13.8895V13.9047L18.371 13.9017L18.339 13.9321L18.3329 13.9306V13.9443L18.3085 13.9549L18.3009 13.9686L18.2857 13.9656L18.0346 14.1513L18.0269 14.1498L18.0193 14.1696L18.0041 14.1741V14.1894L17.9889 14.1939V14.2076L17.9737 14.2122V14.2274L17.9493 14.2381V14.2518L17.9265 14.2624L17.9189 14.2822L17.8869 14.299L17.8397 14.334L17.8412 14.3477L17.8169 14.3507L17.7697 14.3933L17.7545 14.3903L17.7469 14.404L17.7301 14.3994L17.7073 14.4253L17.6829 14.4283L17.6753 14.4405L17.6601 14.4375L17.6525 14.4512L17.6357 14.4481L17.6281 14.4618L17.6129 14.4588V14.4664L17.5886 14.4679L17.5825 14.4816L17.5657 14.4786L17.5505 14.4984L17.5338 14.4953L17.4942 14.5379L17.4957 14.5532H17.4942L17.4881 14.5455V14.5395L17.4759 14.541L17.4561 14.509L17.4485 14.5075Z" fill="#57B14F"/>
<path d="M12.678 13.6415L12.6765 13.6384H12.6796L12.6826 13.6415H12.678Z" fill="#81BB2F"/>
<path d="M12.8485 13.6125L12.8804 13.611V13.6034L12.8956 13.5988V13.5851L12.9109 13.5805V13.5729L12.9276 13.576L12.9261 13.5684L12.9428 13.5714L12.9581 13.5516L12.9748 13.5562V13.541L12.99 13.544L13.022 13.5273L13.0372 13.509L13.0677 13.5075L13.0753 13.4953L13.092 13.4983L13.1072 13.4786L13.1392 13.477L13.1468 13.4633L13.2168 13.4557L13.2336 13.4359L13.3051 13.4283L13.3264 13.4101L13.4208 13.3263L13.4452 13.3081L13.5867 13.2259L13.6096 13.2304V13.2167L13.7191 13.1635L13.8135 13.1148L13.8455 13.1132L13.8531 13.1011L13.8683 13.1041V13.0965L13.8912 13.1011V13.0934L13.9399 13.0874V13.0797L13.9703 13.0858V13.0782L13.987 13.0813V13.0737L14.0023 13.0767L14.0099 13.0645L14.0342 13.0691L14.0403 13.0554L14.0662 13.0539L14.0647 13.0447L14.0723 13.0478L14.0966 13.0295V13.0143L14.1195 13.0112L14.1271 12.9915L14.1514 12.9884L14.1743 12.9641L14.1895 12.9671L14.2367 12.9245L14.2534 12.9275L14.2595 12.9138L14.2763 12.9169L14.2915 12.8986L14.3082 12.9016V12.894L14.3234 12.8971V12.8895L14.3478 12.8727L14.4254 12.8499L14.5503 12.7646L14.5822 12.7479V12.7342L14.5974 12.7296V12.7144L14.6218 12.7053V12.6977L14.637 12.7007V12.6931L14.6446 12.6946L14.6675 12.6779L14.6751 12.6566L14.6918 12.6596L14.6994 12.6474H14.707V12.6337L14.7162 12.6353L14.7314 12.6155L14.7466 12.62V12.6124L14.7618 12.6155V12.6079L14.7847 12.5972L14.7877 12.5896H14.7923L14.7938 12.5911V12.6048L14.8258 12.6261V12.6414L14.8882 12.6901L14.8897 12.7038L14.9049 12.7068V12.7205L14.9217 12.7251V12.7388L14.9369 12.7418L14.9384 12.757L14.9536 12.7586L14.9932 12.824L15.01 12.8271L15.0267 12.8666L15.0404 12.8697V12.8849L15.0571 12.8879L15.1135 12.9778L15.2261 13.1011V13.1148L15.2565 13.1284V13.1421L15.2976 13.165V13.1787L15.3129 13.1817L15.3144 13.1969L15.3296 13.2V13.2152L15.3692 13.2578L15.3859 13.2609V13.2761L15.4012 13.2791V13.2928L15.4179 13.2959L15.4727 13.3857L15.4894 13.3887V13.404L15.5047 13.407V13.4283L15.5214 13.4314L15.7299 13.6658V13.681L15.7452 13.684L15.7695 13.7251L15.7847 13.7267V13.7434L15.8015 13.7449L15.8258 13.786L15.8411 13.7891V13.8028L15.8563 13.8058L15.8822 13.8606L15.8974 13.8637V13.8789L15.9126 13.8819L15.9385 13.9367L15.9522 13.9413L15.9537 13.9626L15.9689 13.9656L15.9781 13.9885L15.9857 13.99L15.9933 14.0281L16.01 14.0387V14.0524L16.0268 14.0631V14.0844L16.042 14.095L16.0496 14.1407L16.0663 14.1498V14.1788L16.074 14.1803L16.0831 14.2183L16.0968 14.2214L16.1074 14.296L16.1151 14.2975V14.3127L16.1227 14.3142L16.1242 14.3568L16.1409 14.3675L16.1805 14.506L16.1972 14.5091L16.2125 14.5699L16.2277 14.573L16.2368 14.6263L16.252 14.6278L16.2627 14.7024L16.2779 14.7054L16.3038 14.9657L16.2962 14.9627L16.2977 15.0799L16.2901 15.0784L16.2916 15.1301L16.2825 15.1286L16.284 15.1712L16.2673 15.1758L16.2612 15.2336L16.2444 15.2306L16.2064 15.3463L16.1896 15.3432L16.1287 15.4498L16.112 15.4528L16.1044 15.4513L16.1059 15.4726L16.0892 15.4711V15.4772L16.0587 15.4939L16.0359 15.5122V15.5335L15.9796 15.5518V15.5639L15.9765 15.5624L15.975 15.5655H15.972L15.9583 15.5731H15.9537L15.9385 15.5837L15.9233 15.5807V15.5883L15.908 15.5852V15.5929L15.8913 15.5898L15.8837 15.6035L15.838 15.6081L15.8304 15.6218L15.8137 15.6187L15.8076 15.6309L15.768 15.6537H15.7452V15.669L15.6036 15.6781V15.6933L15.4529 15.6796V15.6872L15.4377 15.6842V15.6903L15.3342 15.672L15.0495 15.5898V15.5761L14.9856 15.5563L14.978 15.5411L14.9628 15.5381V15.5304L14.9217 15.5228V15.5152L14.8988 15.5122V15.5046L14.8197 15.4893L14.8121 15.4741L14.7238 15.4574L14.7162 15.4406L14.6614 15.43V15.4239L14.6294 15.4178V15.4102L14.6051 15.4071V15.3995L14.5655 15.3919L14.5579 15.3752L14.5183 15.3676V15.3539L14.4863 15.3478L14.4787 15.331L14.4239 15.3143V15.2991L14.3904 15.2945V15.2793L14.3585 15.2656L14.36 15.2595L14.3356 15.2534V15.2473L14.2961 15.226V15.2108L14.2717 15.2062V15.1925L14.1438 15.0814L14.1286 15.0784V15.0631L14.0875 15.019L14.0723 15.0175V15.0022L14.0571 14.9992V14.984L13.9049 14.8622L13.8729 14.8409L13.8653 14.8257L13.8485 14.8226V14.8165L13.8333 14.8135V14.8044L13.8013 14.777L13.6978 14.7069V14.6932L13.6826 14.6902V14.675L13.6583 14.6704V14.6567L13.6415 14.6537V14.6384L13.5548 14.5426L13.538 14.5395V14.5258L13.3858 14.3675V14.3523L13.3538 14.3462V14.331L13.331 14.3203V14.3127L13.3142 14.3097L13.3066 14.2929L13.2823 14.2883L13.2747 14.2731L13.2199 14.2412V14.2259L13.2031 14.2229V14.2077L13.1636 14.1864V14.1727L13.1468 14.1696V14.1544L13.0829 14.1057V14.092L13.0677 14.0889L13.0281 14.0235L13.0113 14.0204V14.0052L12.9961 14.0022L12.9794 13.9641L12.9626 13.9611V13.9459L12.9474 13.9428V13.9215L12.9307 13.9108V13.8956H12.923L12.9078 13.856L12.8911 13.853V13.8302L12.8743 13.8271L12.85 13.8013L12.8424 13.786V13.7784L12.8195 13.7739V13.7586L12.7541 13.7191V13.7038L12.6917 13.6627V13.649L12.678 13.6414H12.6825L12.6795 13.6384L12.8409 13.6247L12.8485 13.6125Z" fill="#5FA224"/>
</g>
<defs>
<clipPath id="clip0_1381_1533">
<rect width="22" height="13.6676" fill="white" transform="translate(1.33325 5)"/>
</clipPath>
</defs>
</svg>
