<svg width="25" height="24" viewBox="0 0 25 24" fill="none" xmlns="http://www.w3.org/2000/svg">
<g clip-path="url(#clip0_1381_1270)">
<path d="M16.6788 1L12.4152 3.17833L8.15747 1L12.4152 9.2478L16.6788 1Z" fill="#FDB812"/>
<path d="M18.1689 7.37389L18.1056 7.31534L21.1465 6.01536V1.66455L15.8617 3.95707C15.8617 3.95707 12.9992 9.4761 12.933 9.602C15.1741 9.87429 16.8571 11.7862 16.8571 14.0904C16.8571 16.5879 14.8663 18.6198 12.4123 18.6198C9.95834 18.6198 7.96755 16.5879 7.96755 14.0904C7.96755 11.7862 9.65052 9.87429 11.8916 9.602C11.8254 9.4761 8.9687 3.95707 8.9687 3.95707L3.69252 1.66455V6.01536L6.73049 7.31534L6.66432 7.37389C4.75984 9.06913 3.66663 11.5168 3.66663 14.0904C3.66663 19.0034 7.59068 22.9999 12.4152 22.9999C17.2397 22.9999 21.1637 19.0034 21.1637 14.0904C21.1637 11.5227 20.0734 9.07499 18.1689 7.37389Z" fill="#FDB812"/>
</g>
<defs>
<clipPath id="clip0_1381_1270">
<rect width="17.5" height="22" fill="white" transform="translate(3.66663 1)"/>
</clipPath>
</defs>
</svg>
