<svg width="25" height="24" viewBox="0 0 25 24" fill="none" xmlns="http://www.w3.org/2000/svg">
<g clip-path="url(#clip0_1381_1452)">
<path fill-rule="evenodd" clip-rule="evenodd" d="M6.25598 11.4924L18.2015 19.3181C19.1229 19.9224 19.3828 21.1636 18.7821 22.0905C18.1814 23.0174 16.9475 23.2789 16.0261 22.6746L6.82208 16.6469C6.82208 16.6469 5.66765 15.9795 5.40332 14.7357C5.03224 12.9894 6.25598 11.4924 6.25598 11.4924ZM16.7792 5.29272C17.8624 5.29358 18.7401 6.17716 18.7401 7.26682C18.7401 8.35647 17.8624 9.24005 16.7792 9.24091C16.3723 9.23812 15.9758 9.11092 15.6425 8.87619L13.1859 7.26686L15.6425 5.65743C15.9745 5.42008 16.3718 5.29261 16.7792 5.29272Z" fill="#38D200"/>
<path fill-rule="evenodd" clip-rule="evenodd" d="M7.29192 19.0674C7.69805 19.0702 8.09373 19.1969 8.42646 19.4307L10.8783 21.0336L8.42646 22.6367C8.09503 22.8731 7.6985 23.0001 7.29192 23C6.21018 23 5.33325 22.1197 5.33325 21.0337C5.33325 19.9477 6.21018 19.0674 7.29192 19.0674ZM15.0895 1.90818C15.6878 2.83222 15.4267 4.06823 14.5062 4.66889L10.2735 7.43598L17.4856 12.1512C17.4856 12.1512 18.7837 12.8981 19.0395 14.1584C19.3813 15.8421 18.2906 17.2417 18.1972 17.3578L18.1908 17.3656L7.31793 10.257C7.31793 10.257 5.91072 9.40396 5.91072 7.4311C5.91072 5.4648 7.31736 4.62264 7.31736 4.62264L12.3395 1.32265C13.26 0.721995 14.4912 0.984145 15.0895 1.90818Z" fill="#0473EA"/>
</g>
<defs>
<clipPath id="clip0_1381_1452">
<rect width="14.1429" height="22" fill="white" transform="translate(5.33325 1)"/>
</clipPath>
</defs>
</svg>
