<svg width="25" height="24" viewBox="0 0 25 24" fill="none" xmlns="http://www.w3.org/2000/svg">
<g clip-path="url(#clip0_1381_1445)">
<path d="M21.5711 13.3784C20.5981 15.7957 18.9685 16.4805 18.9685 16.4805C23.7619 11.6202 20.8349 6.02364 20.8349 6.02364C20.127 4.76738 21.028 4.22162 21.028 4.22162C18.9685 4.73649 19.6121 6.44067 19.6121 6.44067C20.647 8.90428 20.4384 10.9071 20.0883 12.1453L19.4087 11.7643L19.419 11.7489C19.419 11.7489 21.028 5.41353 14.4686 3.1919L14.4635 2H13.0785V9.85163L19.5143 13.52C19.3959 13.7568 19.2723 13.9834 19.1436 14.1945L12.6795 10.4489L6.1871 14.1945C6.05839 13.9834 5.93225 13.7594 5.8164 13.52L12.2522 9.85163V2H10.8672L10.862 3.1919C4.30529 5.41353 5.91423 11.7515 5.91423 11.7515L5.92452 11.7669L5.24491 12.1479C4.89223 10.9097 4.68628 8.90686 5.72115 6.44325C5.72115 6.44325 6.36473 4.73906 4.30529 4.2242C4.30529 4.2242 5.20629 4.76995 4.49836 6.02621C4.49836 6.02621 1.5688 11.6253 6.36473 16.483C6.36473 16.483 4.7352 15.7983 3.76211 13.381C3.76211 13.381 3.21121 12.202 1.66663 12.4594C1.66663 12.4594 2.24842 12.7245 2.5908 13.7929C2.5908 13.7929 3.9835 18.2207 9.35607 18.8952V21.3407H11.9947V17.7367C11.9947 17.7367 9.19646 17.7135 7.05722 15.3632L7.72139 14.9771C7.84495 15.0929 9.87608 16.9747 12.6486 17.0236C12.6486 17.0236 12.6589 17.0236 12.6641 17.0236C12.6692 17.0236 12.6743 17.0236 12.6795 17.0236C15.452 16.9722 17.4831 15.0929 17.6067 14.9771L18.2709 15.3632C16.1342 17.7135 13.3334 17.7367 13.3334 17.7367V21.3407H15.972V18.8952C21.3472 18.2207 22.7373 13.7929 22.7373 13.7929C23.0797 12.7245 23.6615 12.4594 23.6615 12.4594C22.1169 12.202 21.566 13.381 21.566 13.381L21.5711 13.3784ZM18.1319 11.041L18.1267 11.0461L14.4944 9.0124L14.4738 4.66698H14.4944C14.4944 4.66698 18.8707 5.85631 18.1293 11.0384L18.1319 11.041ZM10.8389 4.66955H10.8595L10.8389 9.01498L7.2091 11.0487L7.20395 11.0435C6.46255 5.86403 10.8389 4.67213 10.8389 4.67213V4.66955ZM12.6795 12.0887L16.299 14.2048V14.2099L16.2681 14.1919C14.9732 15.2139 13.7375 15.5537 12.6692 15.5537C11.6009 15.5537 10.3652 15.2165 9.07032 14.1919L9.03943 14.2099V14.2048L12.6821 12.0887H12.6795Z" fill="#0056A7"/>
</g>
<defs>
<clipPath id="clip0_1381_1445">
<rect width="22" height="19.3382" fill="white" transform="translate(1.66663 2)"/>
</clipPath>
</defs>
</svg>
