<svg width="24" height="24" viewBox="0 0 24 24" fill="none" xmlns="http://www.w3.org/2000/svg">
<g clip-path="url(#clip0_1381_1287)">
<path d="M11.9604 22.4742C17.68 22.4742 22.3214 17.7872 22.3214 11.998C22.3214 6.20872 17.68 1.51758 11.9562 1.51758C6.23249 1.51758 1.59521 6.21293 1.59521 11.998C1.59521 17.783 6.23249 22.4742 11.9646 22.4742H11.9604Z" fill="#007BC7"/>
<mask id="mask0_1381_1287" style="mask-type:luminance" maskUnits="userSpaceOnUse" x="1" y="1" width="22" height="22">
<path d="M11.9604 22.4742C17.68 22.4742 22.3214 17.7872 22.3214 11.998C22.3214 6.20872 17.68 1.51758 11.9562 1.51758C6.23249 1.51758 1.59521 6.21293 1.59521 11.998C1.59521 17.783 6.23249 22.4742 11.9646 22.4742H11.9604Z" fill="white"/>
</mask>
<g mask="url(#mask0_1381_1287)">
<path d="M11.9979 17.0593C16.5519 17.0593 20.4566 18.3426 22.13 20.1601C22.692 18.8559 23 17.4212 23 15.9192C23 9.90691 18.0672 5.03906 11.9979 5.03906C5.92867 5.03906 1 9.91112 1 15.9192C1 17.4296 1.30804 18.8559 1.87001 20.1601C3.53926 18.3426 7.4439 17.0593 11.9979 17.0593Z" fill="#007BC7"/>
<path d="M11.998 17.0678C16.5395 17.0678 20.4358 18.3426 22.1051 20.1433C22.667 18.8475 22.9751 17.4254 22.9751 15.936C22.9751 9.97426 18.0589 5.12744 12.0021 5.12744C5.94537 5.12744 1.02502 9.97846 1.02502 15.9402C1.02502 17.438 1.33307 18.8559 1.89087 20.1475C3.55596 18.3426 7.45227 17.072 11.9938 17.072L11.998 17.0678Z" fill="#007DC8"/>
<path d="M11.9937 17.0803C16.5228 17.0803 20.4107 18.3425 22.0717 20.1306C22.6336 18.8474 22.9375 17.4379 22.9375 15.957C22.9375 10.0415 18.0338 5.22412 11.9896 5.22412C5.94528 5.22412 1.05408 10.0499 1.05408 15.9612C1.05408 17.4463 1.36212 18.8516 1.91992 20.1348C3.58085 18.3467 7.46467 17.0845 11.9937 17.0845V17.0803Z" fill="#007EC9"/>
<path d="M11.9938 17.0929C16.5103 17.0929 20.3858 18.3425 22.0467 20.118C22.6046 18.8473 22.9126 17.4463 22.9126 15.978C22.9126 10.113 18.0214 5.31665 11.9938 5.31665C5.96614 5.31665 1.0791 10.1172 1.0791 15.9822C1.0791 17.4547 1.38714 18.8516 1.94079 20.1222C3.59755 18.3467 7.47305 17.0971 11.9896 17.0971L11.9938 17.0929Z" fill="#0080CA"/>
<path d="M11.9938 17.1057C16.502 17.1057 20.365 18.3469 22.0218 20.1055C22.5796 18.8433 22.8835 17.4549 22.8835 15.9992C22.8835 10.1805 18.0048 5.40942 11.9938 5.40942C5.98283 5.40942 1.10828 10.1847 1.10828 16.0034C1.10828 17.4634 1.41632 18.8476 1.96996 20.1097C3.62256 18.3511 7.48557 17.1099 11.9938 17.1099V17.1057Z" fill="#0082CB"/>
<path d="M11.9896 17.1141C16.4853 17.1141 20.34 18.3469 21.9926 20.0929C22.5462 18.8433 22.8543 17.4675 22.8543 16.0202C22.8543 10.252 17.9881 5.50195 11.9937 5.50195C5.9994 5.50195 1.13318 10.2562 1.13318 16.0202C1.13318 17.4717 1.43706 18.8391 1.9907 20.0929C3.63914 18.3469 7.49382 17.1141 11.9896 17.1141Z" fill="#0083CC"/>
<path d="M11.9896 17.1267C16.4729 17.1267 20.3192 18.3468 21.9635 20.0802C22.5171 18.8391 22.821 17.4759 22.821 16.0412C22.821 10.3193 17.9673 5.59448 11.9896 5.59448C6.01193 5.59448 1.16235 10.3235 1.16235 16.0412C1.16235 17.4801 1.46623 18.8391 2.01987 20.0802C3.66415 18.3468 7.50635 17.1267 11.9938 17.1267H11.9896Z" fill="#0085CE"/>
<path d="M11.9896 17.1392C16.4604 17.1392 20.2984 18.3509 21.9386 20.0675C22.4922 18.839 22.7961 17.4842 22.7961 16.0664C22.7961 10.3949 17.9548 5.69116 11.9896 5.69116C6.02446 5.69116 1.18738 10.3907 1.18738 16.0622C1.18738 17.4884 1.49126 18.8348 2.04074 20.0633C3.68085 18.3467 7.51472 17.135 11.9855 17.135L11.9896 17.1392Z" fill="#0087CF"/>
<path d="M11.9854 17.1518C16.4437 17.1518 20.2734 18.3509 21.9093 20.0549C22.4588 18.8348 22.7627 17.4926 22.7627 16.0874C22.7627 10.4622 17.9339 5.78369 11.9854 5.78369C6.03688 5.78369 1.21228 10.4622 1.21228 16.0832C1.21228 17.4968 1.51616 18.8348 2.06564 20.0507C3.70159 18.3509 7.52713 17.1476 11.9854 17.1476V17.1518Z" fill="#0089D0"/>
<path d="M11.9854 17.1646C16.4312 17.1646 20.2485 18.3553 21.8844 20.0424C22.4339 18.8349 22.7378 17.5054 22.7378 16.1086C22.7378 10.5339 17.9215 5.88062 11.9896 5.88062C6.05773 5.88062 1.24146 10.5297 1.24146 16.1044C1.24146 17.5054 1.54533 18.8307 2.09065 20.0382C3.71828 18.3511 7.5355 17.1604 11.9854 17.1604V17.1646Z" fill="#008BD1"/>
<path d="M11.9854 17.173C16.4187 17.173 20.2276 18.3511 21.8552 20.0256C22.4047 18.8265 22.7044 17.5096 22.7044 16.1254C22.7044 10.597 17.9006 5.96899 11.9854 5.96899C6.07014 5.96899 1.26636 10.6012 1.26636 16.1254C1.26636 17.5138 1.56607 18.8265 2.11555 20.0256C3.73902 18.3511 7.54791 17.173 11.9854 17.173Z" fill="#008CD2"/>
<path d="M11.9812 17.1856C16.4021 17.1856 20.2026 18.3553 21.8261 20.0129C22.3714 18.8265 22.6753 17.518 22.6753 16.1464C22.6753 10.6643 17.884 6.06152 11.9812 6.06152C6.0785 6.06152 1.29553 10.6685 1.29553 16.1464C1.29553 17.5222 1.59525 18.8265 2.14057 20.0129C3.75987 18.3553 7.55627 17.1856 11.9812 17.1856Z" fill="#008ED3"/>
<path d="M11.9813 17.1982C16.3938 17.1982 20.1819 18.3552 21.8012 20.0003C22.3465 18.8222 22.6462 17.5264 22.6462 16.1674C22.6462 10.7358 17.8674 6.15405 11.9813 6.15405C6.0952 6.15405 1.32056 10.7358 1.32056 16.1674C1.32056 17.5306 1.62027 18.8222 2.16559 20.0003C3.78073 18.3552 7.56881 17.1982 11.9813 17.1982Z" fill="#0090D4"/>
<path d="M11.9812 17.2108C16.3812 17.2108 20.161 18.3594 21.7761 19.9876C22.3173 18.8222 22.6211 17.539 22.6211 16.1884C22.6211 10.8031 17.8548 6.24658 11.9854 6.24658C6.11593 6.24658 1.34961 10.8073 1.34961 16.1884C1.34961 17.539 1.64933 18.8222 2.19048 19.9876C3.80145 18.3594 7.58121 17.2108 11.9812 17.2108Z" fill="#0092D5"/>
<path d="M11.9771 17.2191C16.3646 17.2191 20.136 18.3551 21.7428 19.9707C22.284 18.8137 22.5837 17.5431 22.5837 16.2094C22.5837 10.8745 17.8299 6.34326 11.9771 6.34326C6.1243 6.34326 1.37463 10.8745 1.37463 16.2094C1.37463 17.5473 1.67435 18.8179 2.2155 19.9707C3.82232 18.3551 7.58958 17.2191 11.9813 17.2191H11.9771Z" fill="#0094D6"/>
<path d="M11.9771 17.2317C16.3522 17.2317 20.1111 18.3593 21.7179 19.9581C22.2591 18.8137 22.5588 17.5515 22.5588 16.2304C22.5588 10.9418 17.8174 6.43579 11.9771 6.43579C6.13684 6.43579 1.39966 10.9418 1.39966 16.2304C1.39966 17.5557 1.69937 18.8179 2.23637 19.9581C3.83901 18.3593 7.59796 17.2317 11.9771 17.2317Z" fill="#0096D7"/>
<path d="M11.9771 17.2446C16.3396 17.2446 20.0902 18.3595 21.6929 19.9457C22.2298 18.8097 22.5296 17.5643 22.5296 16.2516C22.5296 11.0136 17.8007 6.52856 11.9771 6.52856C6.1534 6.52856 1.42871 11.0136 1.42871 16.2516C1.42871 17.5643 1.72426 18.8139 2.26126 19.9457C3.85974 18.3595 7.60619 17.2446 11.9729 17.2446H11.9771Z" fill="#0098D8"/>
<path d="M11.9729 17.2572C16.323 17.2572 20.0653 18.3637 21.6638 19.933C22.2008 18.8097 22.4963 17.5727 22.4963 16.2727C22.4963 11.0808 17.7799 6.62109 11.9729 6.62109C6.16594 6.62109 1.45374 11.0808 1.45374 16.2727C1.45374 17.5727 1.74929 18.8097 2.28628 19.933C3.8806 18.3637 7.61873 17.2572 11.9729 17.2572Z" fill="#009AD9"/>
<path d="M11.973 17.2656C16.3105 17.2656 20.0445 18.3595 21.6347 19.9162C22.1717 18.8013 22.4672 17.5769 22.4672 16.2895C22.4672 11.144 17.7675 6.70947 11.973 6.70947C6.17846 6.70947 1.48291 11.1482 1.48291 16.2937C1.48291 17.5854 1.77846 18.8097 2.31129 19.9204C3.90145 18.3637 7.62709 17.2698 11.973 17.2698V17.2656Z" fill="#009CDA"/>
<path d="M11.9729 17.2782C16.3021 17.2782 20.0236 18.3637 21.6096 19.9036C22.1424 18.797 22.438 17.5853 22.438 16.3105C22.438 11.2155 17.7508 6.802 11.9687 6.802C6.18672 6.802 1.50781 11.2197 1.50781 16.3147C1.50781 17.5937 1.80337 18.8054 2.33619 19.9078C3.92219 18.3679 7.63951 17.2824 11.9729 17.2824V17.2782Z" fill="#009EDB"/>
<path d="M11.9688 17.2907C16.2855 17.2907 19.9945 18.3636 21.5805 19.8908C22.1133 18.7969 22.4089 17.5937 22.4089 16.3315C22.4089 11.2827 17.7341 6.89868 11.9688 6.89868C6.2034 6.89868 1.53699 11.2869 1.53699 16.3357C1.53699 17.6021 1.83254 18.8054 2.36121 19.895C3.94304 18.3678 7.65203 17.2949 11.9688 17.2949V17.2907Z" fill="#00A0DC"/>
<path d="M11.9688 17.3033C16.2731 17.3033 19.9737 18.3678 21.5556 19.8782C22.0884 18.7927 22.3798 17.6062 22.3798 16.3525C22.3798 11.3542 17.7175 6.99121 11.9688 6.99121C6.2201 6.99121 1.56201 11.3584 1.56201 16.3567C1.56201 17.6104 1.8534 18.8011 2.38623 19.8824C3.9639 18.372 7.6604 17.3075 11.9688 17.3075V17.3033Z" fill="#00A2DD"/>
<path d="M11.9688 17.3119C16.2605 17.3119 19.9529 18.3679 21.5264 19.8657C22.055 18.7929 22.3506 17.6148 22.3506 16.3779C22.3506 11.4259 17.7008 7.08813 11.9688 7.08813C6.23668 7.08813 1.58691 11.4259 1.58691 16.3737C1.58691 17.6148 1.8783 18.7929 2.40697 19.8615C3.98048 18.3637 7.66866 17.3077 11.9646 17.3077L11.9688 17.3119Z" fill="#00A4DE"/>
<path d="M11.9646 17.3245C16.2439 17.3245 19.9279 18.3679 21.4973 19.8531C22.0259 18.7886 22.3173 17.6232 22.3173 16.3989C22.3173 11.4974 17.68 7.18066 11.9646 7.18066C6.2492 7.18066 1.61609 11.4932 1.61609 16.3947C1.61609 17.6232 1.90748 18.7928 2.43615 19.8489C4.00549 18.3679 7.68118 17.3203 11.9688 17.3203L11.9646 17.3245Z" fill="#00A6DF"/>
<path d="M11.9647 17.3371C16.2315 17.3371 19.9071 18.3721 21.4723 19.8404C22.001 18.7886 22.2924 17.6358 22.2924 16.4199C22.2924 11.5646 17.6676 7.27319 11.9647 7.27319C6.26174 7.27319 1.64111 11.5646 1.64111 16.4157C1.64111 17.6316 1.9325 18.7886 2.45701 19.8362C4.02219 18.3679 7.68955 17.3329 11.9605 17.3329L11.9647 17.3371Z" fill="#00A9E0"/>
<path d="M11.9646 17.3497C16.2189 17.3497 19.8821 18.372 21.4473 19.8278C21.9718 18.7843 22.2632 17.6442 22.2632 16.4409C22.2632 11.6361 17.6509 7.36572 11.9646 7.36572C6.2783 7.36572 1.67017 11.6319 1.67017 16.4367C1.67017 17.64 1.96156 18.7886 2.48606 19.8236C4.04708 18.3678 7.70612 17.3454 11.9646 17.3454V17.3497Z" fill="#00ABE1"/>
<path d="M11.9605 17.358C16.2023 17.358 19.8572 18.372 21.414 19.8109C21.9385 18.7801 22.2299 17.6483 22.2299 16.4577C22.2299 11.6992 17.6301 7.45825 11.9605 7.45825C6.29084 7.45825 1.69519 11.6992 1.69519 16.4577C1.69519 17.6483 1.98658 18.7843 2.50692 19.8109C4.06378 18.372 7.71033 17.358 11.9605 17.358Z" fill="#00ADE2"/>
<path d="M11.9605 17.3706C16.194 17.3706 19.8364 18.372 21.3891 19.7982C21.9094 18.7801 22.2008 17.6567 22.2008 16.4787C22.2008 11.7665 17.6135 7.55078 11.9563 7.55078C6.2992 7.55078 1.72437 11.7707 1.72437 16.4787C1.72437 17.6567 2.01159 18.7801 2.5361 19.7982C4.08879 18.372 7.72701 17.3706 11.9647 17.3706H11.9605Z" fill="#01AFE3"/>
<path d="M11.9604 17.3832C16.1814 17.3832 19.8155 18.3761 21.364 19.7856C21.8844 18.7758 22.1758 17.6693 22.1758 16.4997C22.1758 11.838 17.6009 7.64331 11.9604 7.64331C6.31994 7.64331 1.74927 11.838 1.74927 16.4997C1.74927 17.6651 2.0365 18.78 2.55684 19.7856C4.10537 18.3761 7.7311 17.3832 11.9604 17.3832Z" fill="#14B1E4"/>
<path d="M11.9605 17.3958C16.169 17.3958 19.7947 18.3761 21.3391 19.7729C21.8594 18.7758 22.1467 17.6777 22.1467 16.5207C22.1467 11.9053 17.5843 7.73584 11.9605 7.73584C6.33663 7.73584 1.77844 11.9053 1.77844 16.5207C1.77844 17.6777 2.06567 18.7758 2.58601 19.7729C4.13038 18.3761 7.74779 17.3958 11.9605 17.3958Z" fill="#20B4E5"/>
<path d="M11.9564 17.4086C16.1524 17.4086 19.7698 18.3805 21.31 19.7605C21.8262 18.7718 22.1176 17.6863 22.1176 16.5461C22.1176 11.9812 17.5677 7.83276 11.9605 7.83276C6.35332 7.83276 1.80347 11.977 1.80347 16.5419C1.80347 17.6863 2.09069 18.776 2.60687 19.7563C4.14708 18.3763 7.75616 17.4044 11.9564 17.4044V17.4086Z" fill="#28B6E6"/>
<path d="M11.9563 17.417C16.1398 17.417 19.7447 18.3763 21.2808 19.7437C21.797 18.7634 22.0842 17.6905 22.0842 16.5629C22.0842 12.0443 17.5468 7.92114 11.9563 7.92114C6.36574 7.92114 1.82837 12.0443 1.82837 16.5629C1.82837 17.6947 2.1156 18.7718 2.62761 19.7437C4.16366 18.3763 7.76025 17.417 11.9521 17.417H11.9563Z" fill="#30B8E7"/>
<path d="M11.9564 17.4465C16.1357 17.4465 19.7365 18.4016 21.2684 19.7563C21.7845 18.7844 22.0718 17.72 22.0718 16.5966C22.0718 12.1074 17.5427 8.00952 11.9564 8.00952C6.36997 8.00952 1.84509 12.1074 1.84509 16.5966C1.84509 17.72 2.13232 18.7928 2.64434 19.7563C4.17622 18.3974 7.76865 17.4465 11.9564 17.4465Z" fill="#3FBAE8"/>
<path d="M11.9563 17.4715C16.1315 17.4715 19.724 18.4182 21.2558 19.7687C21.772 18.8052 22.0592 17.745 22.0592 16.6301C22.0592 12.1703 17.5344 8.09766 11.9563 8.09766C6.37826 8.09766 1.85754 12.1703 1.85754 16.6259C1.85754 17.7408 2.14061 18.8052 2.65679 19.7645C4.18867 18.414 7.77694 17.4673 11.9563 17.4673V17.4715Z" fill="#4CBDE9"/>
<path d="M11.9563 17.497C16.1232 17.497 19.7156 18.4394 21.2433 19.7773C21.7553 18.8181 22.0426 17.7662 22.0426 16.6555C22.0426 12.2252 17.526 8.17358 11.9563 8.17358C6.38655 8.17358 1.87 12.2294 1.87 16.6597C1.87 17.7704 2.15306 18.8265 2.66924 19.7815C4.19696 18.4436 7.78106 17.5012 11.9563 17.5012V17.497Z" fill="#56BFEA"/>
<path d="M11.9563 17.5264C16.1191 17.5264 19.7032 18.4604 21.2309 19.7941C21.7429 18.8433 22.0301 17.7957 22.0301 16.6933C22.0301 12.2925 17.5177 8.26611 11.9563 8.26611C6.39495 8.26611 1.88672 12.2925 1.88672 16.6933C1.88672 17.7957 2.16978 18.8433 2.6818 19.7941C4.20952 18.4646 7.78946 17.5264 11.9563 17.5264Z" fill="#60C1EA"/>
<path d="M11.9563 17.5515C16.1149 17.5515 19.6907 18.4813 21.2184 19.8024C21.7304 18.8558 22.0176 17.8166 22.0176 16.7227C22.0176 12.3513 17.5136 8.34595 11.9563 8.34595C6.39908 8.34595 1.89917 12.3555 1.89917 16.7227C1.89917 17.8166 2.18224 18.86 2.69425 19.8024C4.21781 18.4813 7.79359 17.5515 11.9563 17.5515Z" fill="#69C4EB"/>
<path d="M11.9563 17.5769C16.1065 17.5769 19.6823 18.4983 21.2059 19.8109C21.7179 18.8727 22.0051 17.8419 22.0051 16.7522C22.0051 12.4103 17.5052 8.43018 11.9604 8.43018C6.41569 8.43018 1.91162 12.4145 1.91162 16.7564C1.91162 17.8419 2.19469 18.8769 2.7067 19.8151C4.23026 18.5025 7.79771 17.5811 11.9563 17.5811V17.5769Z" fill="#71C6EC"/>
<path d="M11.9563 17.6021C16.1024 17.6021 19.6699 18.5193 21.1934 19.8236C21.7055 18.8896 21.9885 17.8672 21.9885 16.7859C21.9885 12.4734 17.4928 8.51855 11.9563 8.51855C6.41992 8.51855 1.92834 12.4776 1.92834 16.7901C1.92834 17.8714 2.21141 18.898 2.71926 19.8278C4.23866 18.5235 7.80611 17.6063 11.9563 17.6063V17.6021Z" fill="#79C9ED"/>
<path d="M11.9563 17.6314C16.0982 17.6314 19.6615 18.5402 21.1809 19.836C21.6888 18.9104 21.976 17.8923 21.976 16.8194C21.976 12.5364 17.4886 8.60254 11.9563 8.60254C6.42405 8.60254 1.9408 12.5406 1.9408 16.8194C1.9408 17.8923 2.22386 18.9104 2.73171 19.836C4.25111 18.5402 7.81024 17.6314 11.9563 17.6314Z" fill="#81CBEE"/>
<path d="M11.9563 17.6567C16.0899 17.6567 19.649 18.5613 21.1684 19.8487C21.6762 18.9273 21.9635 17.9175 21.9635 16.8531C21.9635 12.5995 17.4802 8.69092 11.9604 8.69092C6.44066 8.69092 1.95325 12.5995 1.95325 16.8531C1.95325 17.9175 2.23215 18.9315 2.74416 19.8487C4.2594 18.5613 7.81853 17.6567 11.9563 17.6567Z" fill="#88CEEF"/>
<path d="M11.9563 17.6862C16.0858 17.6862 19.6407 18.5824 21.156 19.8614C21.6638 18.9484 21.9469 17.9429 21.9469 16.8868C21.9469 12.6627 17.472 8.77515 11.9563 8.77515C6.44074 8.77515 1.96997 12.6627 1.96997 16.8868C1.96997 17.9429 2.24887 18.9484 2.75673 19.8614C4.27196 18.5824 7.82276 17.6862 11.9563 17.6862Z" fill="#8FD0F0"/>
<path d="M11.9563 17.7115C16.0816 17.7115 19.6282 18.6035 21.1434 19.8699C21.6513 18.9611 21.9344 17.9682 21.9344 16.9164C21.9344 12.7217 17.4636 8.85938 11.9563 8.85938C6.44903 8.85938 1.98242 12.7259 1.98242 16.9164C1.98242 17.9682 2.26132 18.9653 2.76918 19.8699C4.28025 18.6035 7.83105 17.7115 11.9563 17.7115Z" fill="#96D3F1"/>
<path d="M11.9563 17.7368C16.0774 17.7368 19.6199 18.6203 21.1309 19.8825C21.6388 18.9822 21.9218 17.9935 21.9218 16.95C21.9218 12.7848 17.4594 8.94775 11.9604 8.94775C6.46148 8.94775 1.99487 12.7848 1.99487 16.95C1.99487 17.9935 2.27378 18.9822 2.78163 19.8825C4.2927 18.6246 7.83518 17.7368 11.9563 17.7368Z" fill="#9CD5F1"/>
<path d="M11.9562 17.7661C16.069 17.7661 19.6073 18.6454 21.1142 19.895C21.6179 18.9988 21.9051 18.0185 21.9051 16.9835C21.9051 12.8478 17.4469 9.03174 11.9562 9.03174C6.4656 9.03174 2.00732 12.8478 2.00732 16.9835C2.00732 18.0185 2.28623 19.0031 2.78992 19.895C4.29682 18.6454 7.83514 17.7661 11.9521 17.7661H11.9562Z" fill="#A3D7F2"/>
<path d="M11.9563 17.7914C16.0649 17.7914 19.5991 18.6623 21.1018 19.9076C21.6055 19.0199 21.8886 18.0438 21.8886 17.0172C21.8886 12.9109 17.4386 9.12012 11.9521 9.12012C6.46567 9.12012 2.02405 12.9109 2.02405 17.013C2.02405 18.0396 2.30295 19.0157 2.80664 19.9034C4.31355 18.6623 7.8477 17.7872 11.9563 17.7872V17.7914Z" fill="#A9DAF3"/>
<path d="M11.9563 17.8168C16.0607 17.8168 19.5865 18.6835 21.0893 19.9162C21.593 19.0327 21.876 18.065 21.876 17.0468C21.876 12.9699 17.4303 9.2002 11.9563 9.2002C6.48229 9.2002 2.0365 12.9699 2.0365 17.0468C2.0365 18.0692 2.3154 19.0369 2.81909 19.9162C4.32183 18.6835 7.85183 17.8168 11.9563 17.8168Z" fill="#AFDCF4"/>
<path d="M11.9562 17.846C16.0524 17.846 19.574 18.7043 21.0768 19.9286C21.5805 19.0535 21.8635 18.0942 21.8635 17.0803C21.8635 13.0328 17.4219 9.28833 11.9562 9.28833C6.49058 9.28833 2.04895 13.0328 2.04895 17.0803C2.04895 18.0942 2.32369 19.0577 2.83154 19.9286C4.33429 18.7043 7.86011 17.846 11.9562 17.846Z" fill="#B4DFF5"/>
<path d="M11.9563 17.8713C16.0483 17.8713 19.5658 18.7253 21.0644 19.9413C21.5639 19.0703 21.8469 18.1195 21.8469 17.1139C21.8469 13.096 17.4136 9.37671 11.9521 9.37671C6.49065 9.37671 2.06567 13.096 2.06567 17.1097C2.06567 18.1153 2.34041 19.0703 2.8441 19.937C4.34685 18.7211 7.86435 17.8671 11.9563 17.8671V17.8713Z" fill="#BAE1F6"/>
<path d="M11.9563 17.8966C16.0441 17.8966 19.5532 18.7423 21.0518 19.9498C21.5514 19.0873 21.8344 18.1407 21.8344 17.1435C21.8344 13.155 17.4053 9.45679 11.9563 9.45679C6.50726 9.45679 2.07812 13.1592 2.07812 17.1435C2.07812 18.1407 2.35286 19.0873 2.85655 19.9498C4.35514 18.7423 7.86848 17.8966 11.9563 17.8966Z" fill="#BFE3F6"/>
<path d="M11.9562 17.9217C16.0357 17.9217 19.5449 18.7632 21.0393 19.9581C21.5388 19.0998 21.8219 18.1615 21.8219 17.1728C21.8219 13.2137 17.4011 9.54077 11.9562 9.54077C6.51139 9.54077 2.09058 13.218 2.09058 17.177C2.09058 18.17 2.36532 19.1082 2.86901 19.9623C4.36342 18.7632 7.87676 17.9259 11.9562 17.9259V17.9217Z" fill="#C5E6F7"/>
<path d="M11.9563 17.9512C16.0316 17.9512 19.5325 18.7885 21.0269 19.9749C21.5264 19.125 21.8095 18.191 21.8095 17.2107C21.8095 13.2811 17.3928 9.62915 11.9563 9.62915C6.51979 9.62915 2.1073 13.2811 2.1073 17.2065C2.1073 18.191 2.38204 19.125 2.88157 19.9707C4.37598 18.7842 7.881 17.947 11.9563 17.947V17.9512Z" fill="#CAE8F8"/>
<path d="M11.9563 17.9765C16.0274 17.9765 19.5241 18.8054 21.0144 19.9834C21.5139 19.1419 21.7928 18.2163 21.7928 17.2402C21.7928 13.3401 17.3845 9.71338 11.9563 9.71338C6.52808 9.71338 2.11975 13.3443 2.11975 17.2402C2.11975 18.2163 2.39449 19.1419 2.89402 19.9834C4.38427 18.8054 7.88929 17.9765 11.9563 17.9765Z" fill="#CFEAF9"/>
<path d="M11.9562 18.0018C16.0191 18.0018 19.5116 18.8264 21.0018 19.9961C21.4972 19.1588 21.7803 18.2416 21.7803 17.2739C21.7803 13.4032 17.3761 9.80176 11.9562 9.80176C6.53637 9.80176 2.1322 13.4032 2.1322 17.2739C2.1322 18.2458 2.40694 19.163 2.90647 19.9961C4.39672 18.8264 7.89341 18.0018 11.9562 18.0018Z" fill="#D5ECFA"/>
<path d="M11.9563 18.0313C16.015 18.0313 19.4992 18.8475 20.9894 20.0088C21.4848 19.1799 21.7679 18.2669 21.7679 17.3077C21.7679 13.4664 17.372 9.88599 11.9563 9.88599C6.54061 9.88599 2.14478 13.4664 2.14478 17.3035C2.14478 18.2669 2.41535 19.1757 2.91488 20.0046C4.40513 18.8433 7.8935 18.0271 11.9522 18.0271L11.9563 18.0313Z" fill="#DAEFFA"/>
<path d="M11.9563 18.0564C16.0108 18.0564 19.4908 18.8642 20.9769 20.017C21.4723 19.1924 21.7553 18.2878 21.7553 17.337C21.7553 13.5251 17.3636 9.96997 11.9604 9.96997C6.55722 9.96997 2.16138 13.5294 2.16138 17.337C2.16138 18.292 2.43195 19.1966 2.93148 20.017C4.41757 18.8642 7.90594 18.0564 11.9563 18.0564Z" fill="#DFF1FB"/>
<path d="M11.9562 18.0817C16.0066 18.0817 19.4783 18.8853 20.9644 20.0297C21.4597 19.2135 21.7386 18.3131 21.7386 17.3707C21.7386 13.5883 17.3511 10.0542 11.9562 10.0542C6.56134 10.0542 2.17383 13.5883 2.17383 17.3707C2.17383 18.3173 2.44441 19.2135 2.94393 20.0297C4.43002 18.8853 7.91006 18.0817 11.9562 18.0817Z" fill="#E4F3FC"/>
<path d="M11.9563 18.1113C15.9983 18.1113 19.47 18.9065 20.952 20.0424C21.4473 19.2304 21.7262 18.3427 21.7262 17.4002C21.7262 13.6473 17.347 10.1384 11.9563 10.1384C6.56559 10.1384 2.1864 13.6515 2.1864 17.4002C2.1864 18.3427 2.45698 19.2304 2.95651 20.0424C4.43844 18.9065 7.91847 18.1113 11.9563 18.1113Z" fill="#E9F5FC"/>
<path d="M11.9563 18.1363C15.9941 18.1363 19.4575 18.9273 20.9394 20.0548C21.4306 19.247 21.7137 18.3677 21.7137 17.4337C21.7137 13.7102 17.3387 10.2266 11.9604 10.2266C6.58219 10.2266 2.203 13.7144 2.203 17.4337C2.203 18.3677 2.47358 19.247 2.96894 20.0548C4.45087 18.9273 7.92259 18.1363 11.9563 18.1363Z" fill="#EDF7FD"/>
<path d="M11.9564 18.1617C15.99 18.1617 19.4493 18.9484 20.9229 20.0634C21.4141 19.264 21.693 18.3889 21.693 17.4633C21.693 13.7693 17.3263 10.3066 11.9522 10.3066C6.57811 10.3066 2.21558 13.7735 2.21558 17.4675C2.21558 18.3931 2.48615 19.2682 2.98152 20.0676C4.45929 18.9484 7.92683 18.1659 11.9564 18.1659V18.1617Z" fill="#F2F9FD"/>
<path d="M11.9563 18.1912C15.9817 18.1912 19.4367 18.9695 20.9103 20.076C21.4015 19.2851 21.6804 18.4141 21.6804 17.497C21.6804 13.8324 17.3179 10.395 11.9522 10.395C6.5864 10.395 2.22803 13.8366 2.22803 17.497C2.22803 18.4184 2.4986 19.2808 2.99397 20.076C4.47174 18.9695 7.93512 18.1912 11.9563 18.1912Z" fill="#F7FBFE"/>
<path d="M11.9563 18.2162C15.9775 18.2162 19.4284 18.9904 20.8978 20.0885C21.389 19.3017 21.6679 18.4434 21.6679 17.5304C21.6679 13.8953 17.3137 10.479 11.9563 10.479C6.59884 10.479 2.24463 13.8995 2.24463 17.5304C2.24463 18.4434 2.51104 19.3017 3.00641 20.0885C4.48001 18.9904 7.93924 18.2162 11.9563 18.2162Z" fill="#FBFDFF"/>
<path d="M11.9564 18.2416C15.9734 18.2416 19.416 19.0073 20.8854 20.097C21.3766 19.3186 21.6555 18.4646 21.6555 17.56C21.6555 13.9543 17.3055 10.5632 11.9564 10.5632C6.60725 10.5632 2.2572 13.9585 2.2572 17.5642C2.2572 18.4688 2.52362 19.3186 3.01898 20.1012C4.49259 19.0115 7.94765 18.2458 11.9605 18.2458L11.9564 18.2416Z" fill="white"/>
</g>
<path d="M11.9563 14.6401C8.44294 14.6401 5.18353 15.2376 2.48608 16.2557C4.10122 19.9203 7.73528 22.4699 11.9646 22.4699C16.1939 22.4699 19.8072 19.9203 21.4265 16.2557C18.7374 15.2376 15.4779 14.6401 11.9604 14.6401H11.9563Z" fill="#007BC7"/>
</g>
<defs>
<clipPath id="clip0_1381_1287">
<rect width="22" height="22" fill="white" transform="translate(1 1)"/>
</clipPath>
</defs>
</svg>
